<?xml version="1.0" encoding="utf-8"?>
<!-- Generator: Adobe Illustrator 26.5.0, SVG Export Plug-In . SVG Version: 6.00 Build 0)  -->
<svg version="1.1" id="Layer_1" xmlns="http://www.w3.org/2000/svg" xmlns:xlink="http://www.w3.org/1999/xlink" x="0px" y="0px"
	 viewBox="0 0 1920 300" style="enable-background:new 0 0 1920 300;" xml:space="preserve">
<style type="text/css">
	.st0{fill:#FFFFFF;}
</style>
<g>
	<path class="st0" d="M538.9,271c0,18.4-14.9,33.2-33.2,33.2c-18.4,0-33.2-14.9-33.2-33.2s14.9-33.2,33.2-33.2
		S538.9,252.6,538.9,271z"/>
	<path class="st0" d="M612.6,261c0,29.7-24.1,53.8-53.8,53.8c-29.7,0-53.8-24.1-53.8-53.8c0-29.7,24.1-53.8,53.8-53.8
		S612.6,231.2,612.6,261z"/>
	<path class="st0" d="M644.9,298.7c0,25.6-20.7,46.3-46.3,46.3c-25.6,0-46.3-20.7-46.3-46.3s20.7-46.3,46.3-46.3
		C624.2,252.4,644.9,273.2,644.9,298.7z"/>
	<path class="st0" d="M703,335.3c0,24.9-20.1,45-45,45s-45-20.1-45-45c0-24.9,20.1-45,45-45C682.8,290.3,703,310.4,703,335.3z"/>
	<circle class="st0" cx="467.6" cy="310.2" r="32"/>
	<polygon class="st0" points="686.2,390.5 437.5,390.5 482.5,290.3 639.8,290.3 	"/>
</g>
<g>
	<path class="st0" d="M965.1,234.8c0,14.6-11.8,26.3-26.3,26.3c-14.6,0-26.3-11.9-26.3-26.3c0-14.6,11.9-26.3,26.3-26.3
		S965.1,220.2,965.1,234.8z"/>
	<path class="st0" d="M893,290.3c0,14.6-11.9,26.3-26.3,26.3c-14.6,0-26.3-11.9-26.3-26.3c0-14.6,11.9-26.3,26.3-26.3
		C881.2,264,893,275.7,893,290.3z"/>
	<circle class="st0" cx="990.4" cy="326.2" r="31.8"/>
	<path class="st0" d="M954,276.1c0,22.4-18.2,40.6-40.6,40.6s-40.6-18.2-40.6-40.6c0-22.4,18.2-40.6,40.6-40.6S954,253.7,954,276.1z
		"/>
	<path class="st0" d="M789.5,319.3c0,19-15.4,34.4-34.4,34.4c-19,0-34.4-15.4-34.4-34.4s15.4-34.4,34.4-34.4
		C774.1,284.9,789.5,300.3,789.5,319.3z"/>
	<ellipse class="st0" cx="990.4" cy="235.6" rx="45.9" ry="45.9"/>
	<path class="st0" d="M1067,272.8c0,17-13.8,30.7-30.7,30.7c-17,0-30.7-13.8-30.7-30.7c0-17,13.8-30.7,30.7-30.7
		C1053.2,242,1067,255.8,1067,272.8z"/>
	<ellipse transform="matrix(0.7071 -0.7071 0.7071 0.7071 28.5661 666.2409)" class="st0" cx="818.5" cy="298.6" rx="48" ry="48"/>
	<ellipse class="st0" cx="929.7" cy="312.1" rx="48" ry="48"/>
	<polygon class="st0" points="659.9,365.6 1054.8,365.6 1054.8,286.6 950.2,242 803.3,312 	"/>
</g>
<g>
	<path class="st0" d="M163.2,213.9c0,17.6-14.3,31.8-31.8,31.8c-17.6,0-31.8-14.3-31.8-31.8c0-17.6,14.3-31.8,31.8-31.8
		S163.2,196.3,163.2,213.9z"/>
	<path class="st0" d="M274.1,295.2c0,18-14.6,32.6-32.6,32.6S209,313.2,209,295.2c0-18,14.6-32.6,32.6-32.6
		C259.6,262.8,274.1,277.3,274.1,295.2z"/>
	<path class="st0" d="M99.1,299.9c0,27.1-22,49.2-49.2,49.2c-27.1,0-49.2-22-49.2-49.2c0-27.1,22-49.2,49.2-49.2
		C77.2,250.7,99.1,272.7,99.1,299.9z"/>
	<ellipse class="st0" cx="152.9" cy="257.4" rx="45.9" ry="45.9"/>
	<path class="st0" d="M241.6,253.4c0,17-13.8,30.7-30.7,30.7c-17,0-30.7-13.8-30.7-30.7c0-17,13.8-30.7,30.7-30.7
		C227.9,222.7,241.6,236.5,241.6,253.4z"/>
	<path class="st0" d="M140,254c0,26.5-21.5,48-48,48s-48.1-21.5-48.1-48s21.5-48,48-48C118.6,206,140,227.5,140,254z"/>
	<path class="st0" d="M354.6,319.9c0,26.5-21.5,48-48,48s-48-21.5-48-48s21.5-48,48-48S354.6,293.4,354.6,319.9z"/>
	<polygon class="st0" points="431.7,373.7 36.8,373.7 36.8,294.7 188,266.3 288.3,319.9 	"/>
</g>
<g>
	<path class="st0" d="M690.5,297.1c0,18.4-14.9,33.2-33.2,33.2c-18.4,0-33.2-14.9-33.2-33.2s14.9-33.2,33.2-33.2
		C675.6,263.9,690.5,278.7,690.5,297.1z"/>
	<path class="st0" d="M764.2,287.1c0,29.7-24.1,53.8-53.8,53.8s-53.8-24.1-53.8-53.8c0-29.7,24.1-53.8,53.8-53.8
		C740.1,233.2,764.2,257.3,764.2,287.1z"/>
	<path class="st0" d="M796.5,324.8c0,25.6-20.7,46.3-46.3,46.3c-25.6,0-46.3-20.7-46.3-46.3s20.7-46.3,46.3-46.3
		C775.8,278.5,796.5,299.2,796.5,324.8z"/>
</g>
<g>
	<path class="st0" d="M420.3,255c0,17.6-14.3,31.8-31.8,31.8c-17.6,0-31.8-14.3-31.8-31.8c0-17.6,14.3-31.8,31.8-31.8
		C406,223.1,420.3,237.4,420.3,255z"/>
	<path class="st0" d="M356.3,340.9c0,27.1-22,49.2-49.2,49.2c-27.1,0-49.2-22-49.2-49.2c0-27.1,22-49.2,49.2-49.2
		C334.3,291.8,356.3,313.8,356.3,340.9z"/>
	<ellipse class="st0" cx="409.9" cy="298.7" rx="45.9" ry="45.9"/>
	<path class="st0" d="M498.7,294.5c0,17-13.8,30.7-30.7,30.7c-17,0-30.7-13.8-30.7-30.7c0-17,13.8-30.7,30.7-30.7
		C484.9,263.8,498.7,277.5,498.7,294.5z"/>
	<path class="st0" d="M397.1,295.1c0,26.5-21.5,48-48,48s-48-21.5-48-48s21.5-48,48-48S397.1,268.5,397.1,295.1z"/>
</g>
<g>
	<path class="st0" d="M1445.3,286.2c0,16.5-13.4,29.9-29.9,29.9c-16.5,0-29.9-13.4-29.9-29.9s13.4-29.9,29.9-29.9
		C1431.8,256.3,1445.3,269.7,1445.3,286.2z"/>
	<path class="st0" d="M1511.5,277.3c0,26.7-21.7,48.4-48.4,48.4s-48.4-21.7-48.4-48.4s21.7-48.4,48.4-48.4
		S1511.5,250.5,1511.5,277.3z"/>
	<path class="st0" d="M1540.6,311.2c0,22.9-18.7,41.6-41.6,41.6c-22.9,0-41.6-18.7-41.6-41.6c0-23,18.7-41.6,41.6-41.6
		C1521.9,269.6,1540.6,288.2,1540.6,311.2z"/>
	<circle class="st0" cx="1381.2" cy="321.5" r="28.8"/>
</g>
<g>
	<path class="st0" d="M1828.4,252.8c0,13.1-10.6,23.7-23.7,23.7c-13.1,0-23.7-10.6-23.7-23.7s10.6-23.7,23.7-23.7
		C1817.7,229.1,1828.4,239.7,1828.4,252.8z"/>
	<path class="st0" d="M1763.6,302.6c0,13.1-10.6,23.7-23.7,23.7s-23.7-10.6-23.7-23.7c0-13.1,10.6-23.7,23.7-23.7
		S1763.6,289.5,1763.6,302.6z"/>
	<path class="st0" d="M1818.5,289.9c0,20.1-16.3,36.5-36.5,36.5c-20.1,0-36.5-16.3-36.5-36.5c0-20.1,16.3-36.5,36.5-36.5
		C1802.1,253.4,1818.5,269.7,1818.5,289.9z"/>
	<path class="st0" d="M1670.5,328.7c0,17.1-13.8,30.9-30.9,30.9c-17.1,0-30.9-13.8-30.9-30.9c0-17.1,13.8-30.9,30.9-30.9
		S1670.5,311.6,1670.5,328.7z"/>
	
		<ellipse transform="matrix(0.8806 -0.4738 0.4738 0.8806 100.8836 907.3414)" class="st0" cx="1851.1" cy="253.5" rx="41.2" ry="41.2"/>
	<path class="st0" d="M1920.1,297.9c0,15.3-12.3,27.6-27.6,27.6s-27.6-12.3-27.6-27.6c0-15.3,12.3-27.6,27.6-27.6
		C1907.6,270.2,1920.1,282.6,1920.1,297.9z"/>
	
		<ellipse transform="matrix(0.7071 -0.7071 0.7071 0.7071 277.686 1290.6139)" class="st0" cx="1696.8" cy="310.1" rx="43.1" ry="43.1"/>
	
		<ellipse transform="matrix(0.2307 -0.973 0.973 0.2307 1068.4749 1996.0878)" class="st0" cx="1796.6" cy="322.3" rx="43.1" ry="43.1"/>
	<polygon class="st0" points="1554.1,370.4 1909.1,370.4 1909.1,299.3 1815,259.2 1683,322.1 	"/>
</g>
<g>
	<path class="st0" d="M1107.5,234.9c0,15.8-12.8,28.6-28.6,28.6c-15.8,0-28.6-12.8-28.6-28.6c0-15.8,12.8-28.6,28.6-28.6
		C1094.6,206.3,1107.5,219.2,1107.5,234.9z"/>
	<path class="st0" d="M1207.3,308.1c0,16.1-13.1,29.3-29.3,29.3c-16.1,0-29.3-13.1-29.3-29.3c0-16.1,13.1-29.3,29.3-29.3
		C1194.1,278.8,1207.3,291.9,1207.3,308.1z"/>
	<path class="st0" d="M1049.9,312.3c0,24.4-19.8,44.2-44.2,44.2s-44.2-19.8-44.2-44.2s19.7-44.2,44.2-44.2
		C1030.2,268,1049.9,287.8,1049.9,312.3z"/>
	
		<ellipse transform="matrix(0.1606 -0.987 0.987 0.1606 651.202 1313.9504)" class="st0" cx="1098.1" cy="274.1" rx="41.2" ry="41.2"/>
	<path class="st0" d="M1178,270.5c0,15.3-12.3,27.6-27.6,27.6c-15.3,0-27.6-12.3-27.6-27.6s12.3-27.6,27.6-27.6
		C1165.7,242.8,1178,255.2,1178,270.5z"/>
	<path class="st0" d="M1086.7,271c0,23.8-19.3,43.1-43.1,43.1s-43.1-19.3-43.1-43.1s19.3-43.1,43.1-43.1S1086.7,247.1,1086.7,271z"
		/>
	<path class="st0" d="M1279.7,330.2c0,23.8-19.3,43.1-43.1,43.1s-43.1-19.3-43.1-43.1c0-23.8,19.3-43.1,43.1-43.1
		S1279.7,306.4,1279.7,330.2z"/>
	<polygon class="st0" points="1348.9,378.5 993.9,378.5 993.9,307.5 1129.9,282 1220,330.2 	"/>
</g>
<g>
	<path class="st0" d="M1581.5,308.8c0,16.5-13.4,29.9-29.9,29.9s-29.9-13.4-29.9-29.9s13.4-29.9,29.9-29.9
		C1568.2,278.8,1581.5,292.2,1581.5,308.8z"/>
	<path class="st0" d="M1647.9,299.7c0,26.7-21.7,48.4-48.4,48.4s-48.4-21.7-48.4-48.4c0-26.7,21.7-48.4,48.4-48.4
		S1647.9,273,1647.9,299.7z"/>
	<path class="st0" d="M1676.8,333.6c0,22.9-18.7,41.6-41.6,41.6c-22.9,0-41.6-18.7-41.6-41.6c0-23,18.7-41.6,41.6-41.6
		C1658.3,292,1676.8,310.7,1676.8,333.6z"/>
</g>
<g>
	<path class="st0" d="M1338.6,271.8c0,15.8-12.8,28.6-28.6,28.6c-15.8,0-28.6-12.8-28.6-28.6c0-15.8,12.8-28.6,28.6-28.6
		C1325.8,243.3,1338.6,256.1,1338.6,271.8z"/>
	
		<ellipse transform="matrix(0.1606 -0.987 0.987 0.1606 808.7571 1573.184)" class="st0" cx="1329.3" cy="311.1" rx="41.2" ry="41.2"/>
	<path class="st0" d="M1409.2,307.4c0,15.3-12.3,27.6-27.6,27.6c-15.3,0-27.6-12.3-27.6-27.6c0-15.3,12.3-27.6,27.6-27.6
		C1396.8,279.7,1409.2,292.1,1409.2,307.4z"/>
	<path class="st0" d="M1317.8,307.9c0,23.8-19.3,43.1-43.1,43.1s-43.1-19.3-43.1-43.1c0-23.8,19.3-43.1,43.1-43.1
		C1298.5,264.7,1317.8,284.1,1317.8,307.9z"/>
</g>
</svg>
