<?xml version="1.0" encoding="utf-8"?>
<!-- Generator: Adobe Illustrator 26.5.0, SVG Export Plug-In . SVG Version: 6.00 Build 0)  -->
<svg version="1.1" id="Layer_1" xmlns="http://www.w3.org/2000/svg" xmlns:xlink="http://www.w3.org/1999/xlink" x="0px" y="0px"
	 viewBox="0 0 1920 300" style="enable-background:new 0 0 1920 300;" xml:space="preserve">
<style type="text/css">
	.st0{fill:#05396B;}
</style>
<g>
	<path class="st0" d="M473.9,98.7c0,23.9-19.3,43.2-43.2,43.2c-23.9,0-43.2-19.3-43.2-43.2s19.3-43.2,43.2-43.2
		C454.6,55.5,473.9,74.9,473.9,98.7z"/>
	<path class="st0" d="M670.1,190.6c0,23.9-19.3,43.2-43.2,43.2s-43.2-19.3-43.2-43.2c0-23.9,19.3-43.2,43.2-43.2
		S670.1,166.7,670.1,190.6z"/>
	<path class="st0" d="M435,153.5c0,34.4-27.9,62.3-62.3,62.3s-62.3-27.9-62.3-62.3s27.9-62.3,62.3-62.3S435,119.2,435,153.5z"/>
	
		<ellipse transform="matrix(0.8632 -0.5049 0.5049 0.8632 0.2927 310.2669)" class="st0" cx="572.6" cy="154.6" rx="58.9" ry="58.9"/>
	<path class="st0" d="M561.2,97.3c0,17.2-13.9,31.1-31.1,31.1c-17.2,0-31.1-13.9-31.1-31.1c0-17.2,13.9-31.1,31.1-31.1
		C547.3,66.2,561.2,80.1,561.2,97.3z"/>
	<path class="st0" d="M346.3,108.7c0,17.2-13.9,31.1-31.1,31.1c-17.2,0-31.1-13.9-31.1-31.1c0-17.2,13.9-31.1,31.1-31.1
		C332.3,77.6,346.3,91.6,346.3,108.7z"/>
	<path class="st0" d="M344.1,173c0,17.2-13.9,31.1-31.1,31.1c-17.2,0-31.1-13.9-31.1-31.1c0-17.2,13.9-31.1,31.1-31.1
		C330.1,141.9,344.1,155.8,344.1,173z"/>
	<path class="st0" d="M516.8,67.7c0,20.3-16.4,36.7-36.7,36.7c-20.3,0-36.7-16.4-36.7-36.7c0-20.3,16.4-36.7,36.7-36.7
		C500.4,31,516.8,47.4,516.8,67.7z"/>
	<polygon class="st0" points="583.7,215.1 395.2,215.1 395.2,114 483.1,77.7 583.7,114 	"/>
</g>
<g>
	<circle class="st0" cx="1338.6" cy="153.7" r="75"/>
	<circle class="st0" cx="1592.9" cy="185.8" r="50.3"/>
	<path class="st0" d="M1264.4,203.7c0,32-26,58-58,58c-32,0-58-26-58-58c0-32,26-58,58-58C1238.4,145.7,1264.4,171.6,1264.4,203.7z"
		/>
	<path class="st0" d="M1586.7,153.4c0,37.9-30.7,68.6-68.6,68.6c-37.9,0-68.6-30.7-68.6-68.6c0-37.9,30.7-68.6,68.6-68.6
		C1556,84.8,1586.7,115.6,1586.7,153.4z"/>
	<path class="st0" d="M1466,127.4c0,20-16.2,36.3-36.3,36.3c-20,0-36.3-16.2-36.3-36.3s16.2-36.3,36.3-36.3
		C1449.7,91.2,1466,107.4,1466,127.4z"/>
	<circle class="st0" cx="1257.2" cy="146.9" r="36.3"/>
	<circle class="st0" cx="1571.3" cy="110.6" r="42.8"/>
	<polygon class="st0" points="1604,264.7 1220.9,264.7 1220.9,171.4 1399.5,137.9 1604,171.4 	"/>
</g>
<g>
	<path class="st0" d="M1868.7,73.4c0,17.4-14.1,31.5-31.5,31.5c-17.4,0-31.5-14.1-31.5-31.5c0-17.4,14.1-31.5,31.5-31.5
		C1854.6,41.9,1868.7,56,1868.7,73.4z"/>
	<path class="st0" d="M1782.6,139.7c0,17.4-14.1,31.5-31.5,31.5c-17.4,0-31.5-14.1-31.5-31.5c0-17.4,14.1-31.5,31.5-31.5
		C1768.5,108.2,1782.6,122.3,1782.6,139.7z"/>
	<circle class="st0" cx="1898.9" cy="182.5" r="38"/>
	<path class="st0" d="M1855.5,122.8c0,26.8-21.7,48.5-48.5,48.5c-26.8,0-48.5-21.7-48.5-48.5c0-26.8,21.7-48.5,48.5-48.5
		C1833.8,74.3,1855.5,96,1855.5,122.8z"/>
	<path class="st0" d="M1659,174.3c0,22.7-18.4,41.1-41.1,41.1c-22.7,0-41.1-18.4-41.1-41.1c0-22.7,18.4-41.1,41.1-41.1
		C1640.6,133.2,1659,151.6,1659,174.3z"/>
	<path class="st0" d="M1594.4,196.7c0,14.7-11.9,26.6-26.6,26.6c-14.7,0-26.6-11.9-26.6-26.6c0-14.7,11.9-26.6,26.6-26.6
		C1582.5,170.1,1594.4,182,1594.4,196.7z"/>
	
		<ellipse transform="matrix(0.8806 -0.4738 0.4738 0.8806 191.513 908.6513)" class="st0" cx="1898.9" cy="74.3" rx="54.8" ry="54.8"/>
	<path class="st0" d="M1990.4,118.7c0,20.3-16.4,36.7-36.7,36.7c-20.3,0-36.7-16.4-36.7-36.7c0-20.3,16.4-36.7,36.7-36.7
		C1973.9,82.1,1990.4,98.5,1990.4,118.7z"/>
	
		<ellipse transform="matrix(0.7071 -0.7071 0.7071 0.7071 390.2479 1241.4844)" class="st0" cx="1693.7" cy="149.7" rx="57.4" ry="57.4"/>
	
		<ellipse transform="matrix(0.2307 -0.973 0.973 0.2307 1244.0096 1904.6018)" class="st0" cx="1826.5" cy="165.6" rx="57.4" ry="57.4"/>
	<polygon class="st0" points="1504.3,229.7 1975.8,229.7 1975.8,135.3 1850.9,82.1 1675.5,165.6 	"/>
</g>
<g>
	<path class="st0" d="M123.3,45.6c0,19.2-15.6,34.9-34.9,34.9c-19.3,0-34.9-15.6-34.9-34.9c0-19.3,15.6-34.9,34.9-34.9
		C107.7,10.8,123.3,26.4,123.3,45.6z"/>
	<circle class="st0" cx="346.8" cy="177.3" r="34.9"/>
	<path class="st0" d="M244.8,134.8c0,19.7-16,35.6-35.6,35.6c-19.7,0-35.6-15.9-35.6-35.6c0-19.7,16-35.6,35.6-35.6
		C228.9,99.1,244.8,115.1,244.8,134.8z"/>
	<path class="st0" d="M53.2,139.8c0,29.7-24.1,53.8-53.8,53.8c-29.7,0-53.8-24.1-53.8-53.8c0-29.7,24.1-53.8,53.8-53.8
		C29.1,86,53.2,110.1,53.2,139.8z"/>
	<ellipse transform="matrix(0.1606 -0.987 0.987 0.1606 1.7689 188.8776)" class="st0" cx="111.9" cy="93.4" rx="50.2" ry="50.2"/>
	<path class="st0" d="M209.2,88.9c0,18.6-15.1,33.7-33.7,33.7c-18.6,0-33.6-15.1-33.6-33.7c0-18.6,15.1-33.6,33.6-33.6
		C194.1,55.2,209.2,70.3,209.2,88.9z"/>
	<path class="st0" d="M97.9,89.6c0,29-23.6,52.6-52.6,52.6c-29.1,0-52.6-23.6-52.6-52.6C-7.3,60.5,16.3,37,45.3,37
		C74.4,37,97.9,60.5,97.9,89.6z"/>
	<path class="st0" d="M333,161.8c0,29.1-23.6,52.6-52.6,52.6c-29.1,0-52.6-23.6-52.6-52.6c0-29,23.6-52.6,52.6-52.6
		C309.4,109.2,333,132.8,333,161.8z"/>
	<polygon class="st0" points="417.3,220.6 -15.1,220.6 -15.1,134 150.5,103 260.4,161.8 	"/>
</g>
<g>
	<path class="st0" d="M718.1,80.8c0,16.2-13.1,29.4-29.4,29.4c-16.2,0-29.4-13.1-29.4-29.4c0-16.2,13.1-29.4,29.4-29.4
		C705,51.4,718.1,64.6,718.1,80.8z"/>
	<path class="st0" d="M778,90.4c0,26.3-21.3,47.6-47.6,47.6c-26.3,0-47.6-21.3-47.6-47.6s21.3-47.6,47.6-47.6
		C756.7,42.8,778,64.1,778,90.4z"/>
	<path class="st0" d="M811.8,105.3c0,22.6-18.3,40.9-40.9,40.9c-22.6,0-40.9-18.3-40.9-40.9c0-22.6,18.3-40.9,40.9-40.9
		C793.4,64.4,811.8,82.7,811.8,105.3z"/>
	<path class="st0" d="M863,137.6c0,22-17.8,39.8-39.8,39.8c-22,0-39.8-17.8-39.8-39.8c0-22,17.8-39.8,39.8-39.8
		C845.2,97.9,863,115.7,863,137.6z"/>
	<path class="st0" d="M654.2,150.7c0,18.3-14.8,33.1-33.1,33.1c-18.3,0-33.1-14.8-33.1-33.1c0-18.3,14.8-33.1,33.1-33.1
		C639.4,117.6,654.2,132.4,654.2,150.7z"/>
	<circle class="st0" cx="655.2" cy="115.4" r="28.2"/>
	<polygon class="st0" points="848.2,209 628.6,209 668.3,97.9 807.3,97.9 	"/>
</g>
<g>
	<path class="st0" d="M1010,110.5c0,23.9-19.3,43.2-43.2,43.2c-23.9,0-43.2-19.3-43.2-43.2s19.3-43.2,43.2-43.2
		C990.6,67.3,1010,86.6,1010,110.5z"/>
	<path class="st0" d="M1206.2,202.4c0,23.9-19.3,43.2-43.2,43.2c-23.9,0-43.2-19.3-43.2-43.2c0-23.9,19.3-43.2,43.2-43.2
		C1186.8,159.2,1206.2,178.5,1206.2,202.4z"/>
	<path class="st0" d="M971,165.3c0,34.4-27.9,62.3-62.3,62.3c-34.4,0-62.3-27.9-62.3-62.3s27.9-62.3,62.3-62.3
		C943.1,103,971,130.9,971,165.3z"/>
	
		<ellipse transform="matrix(0.8632 -0.5049 0.5049 0.8632 67.6967 582.5327)" class="st0" cx="1108.6" cy="166.4" rx="58.9" ry="58.9"/>
	<path class="st0" d="M1097.3,109.1c0,17.2-13.9,31.1-31.1,31.1s-31.1-13.9-31.1-31.1c0-17.2,13.9-31.1,31.1-31.1
		S1097.3,91.9,1097.3,109.1z"/>
	<path class="st0" d="M882.3,120.5c0,17.2-13.9,31.1-31.1,31.1S820,137.7,820,120.5c0-17.2,13.9-31.1,31.1-31.1
		S882.3,103.3,882.3,120.5z"/>
	<path class="st0" d="M880.1,184.8c0,17.2-13.9,31.1-31.1,31.1c-17.2,0-31.1-13.9-31.1-31.1c0-17.2,13.9-31.1,31.1-31.1
		C866.2,153.7,880.1,167.6,880.1,184.8z"/>
	<path class="st0" d="M1209.4,141.3c0,20.3-16.4,36.7-36.7,36.7c-20.3,0-36.7-16.4-36.7-36.7c0-20.3,16.4-36.7,36.7-36.7
		C1193,104.6,1209.4,121.1,1209.4,141.3z"/>
	<polygon class="st0" points="1119.8,226.9 931.3,226.9 931.3,125.7 1019.2,89.4 1119.8,125.7 	"/>
</g>
<rect x="-86.2" y="165.6" class="st0" width="2076.9" height="173.5"/>
</svg>
