<?xml version="1.0" encoding="UTF-8"?><svg id="Layer_1" xmlns="http://www.w3.org/2000/svg" viewBox="0 0 1920 300"><defs><style>.cls-1{fill:#ebf6de;}</style></defs><g><path class="cls-1" d="M473.9,92c0,23.9-19.3,43.2-43.2,43.2s-43.2-19.3-43.2-43.2,19.3-43.2,43.2-43.2,43.2,19.4,43.2,43.2Z"/><path class="cls-1" d="M670.1,183.9c0,23.9-19.3,43.2-43.2,43.2s-43.2-19.3-43.2-43.2,19.3-43.2,43.2-43.2,43.2,19.3,43.2,43.2Z"/><path class="cls-1" d="M435,146.8c0,34.4-27.9,62.3-62.3,62.3s-62.3-27.9-62.3-62.3,27.9-62.3,62.3-62.3,62.3,28,62.3,62.3Z"/><circle class="cls-1" cx="572.62" cy="147.99" r="58.9" transform="translate(63.07 448.25) rotate(-45)"/><path class="cls-1" d="M561.2,90.6c0,17.2-13.9,31.1-31.1,31.1s-31.1-13.9-31.1-31.1,13.9-31.1,31.1-31.1,31.1,13.9,31.1,31.1Z"/><path class="cls-1" d="M346.3,102c0,17.2-13.9,31.1-31.1,31.1s-31.1-13.9-31.1-31.1,13.9-31.1,31.1-31.1c17.1,0,31.1,14,31.1,31.1Z"/><path class="cls-1" d="M344.1,166.3c0,17.2-13.9,31.1-31.1,31.1s-31.1-13.9-31.1-31.1,13.9-31.1,31.1-31.1,31.1,13.9,31.1,31.1Z"/><path class="cls-1" d="M516.8,61c0,20.3-16.4,36.7-36.7,36.7s-36.7-16.4-36.7-36.7,16.4-36.7,36.7-36.7c20.3,0,36.7,16.4,36.7,36.7Z"/><polygon class="cls-1" points="583.7 208.4 395.2 208.4 395.2 107.3 483.1 71 583.7 107.3 583.7 208.4"/></g><g><circle class="cls-1" cx="1338.6" cy="147" r="75"/><circle class="cls-1" cx="1592.9" cy="179.1" r="50.3"/><path class="cls-1" d="M1264.4,197c0,32-26,58-58,58s-58-26-58-58,26-58,58-58,58,25.9,58,58Z"/><path class="cls-1" d="M1586.7,146.7c0,37.9-30.7,68.6-68.6,68.6s-68.6-30.7-68.6-68.6,30.7-68.6,68.6-68.6c37.9,0,68.6,30.8,68.6,68.6Z"/><path class="cls-1" d="M1466,120.7c0,20-16.2,36.3-36.3,36.3s-36.3-16.2-36.3-36.3,16.2-36.3,36.3-36.3c20,.1,36.3,16.3,36.3,36.3Z"/><circle class="cls-1" cx="1257.2" cy="140.2" r="36.3"/><circle class="cls-1" cx="1571.3" cy="103.9" r="42.8"/><polygon class="cls-1" points="1604 258 1220.9 258 1220.9 164.7 1399.5 131.2 1604 164.7 1604 258"/></g><g><path class="cls-1" d="M1868.7,66.7c0,17.4-14.1,31.5-31.5,31.5s-31.5-14.1-31.5-31.5,14.1-31.5,31.5-31.5,31.5,14.1,31.5,31.5Z"/><path class="cls-1" d="M1782.6,133c0,17.4-14.1,31.5-31.5,31.5s-31.5-14.1-31.5-31.5,14.1-31.5,31.5-31.5,31.5,14.1,31.5,31.5Z"/><circle class="cls-1" cx="1898.9" cy="175.8" r="38"/><path class="cls-1" d="M1855.5,116.1c0,26.8-21.7,48.5-48.5,48.5s-48.5-21.7-48.5-48.5,21.7-48.5,48.5-48.5,48.5,21.7,48.5,48.5Z"/><path class="cls-1" d="M1659,167.6c0,22.7-18.4,41.1-41.1,41.1s-41.1-18.4-41.1-41.1,18.4-41.1,41.1-41.1c22.7,0,41.1,18.4,41.1,41.1Z"/><path class="cls-1" d="M1594.4,190c0,14.7-11.9,26.6-26.6,26.6s-26.6-11.9-26.6-26.6,11.9-26.6,26.6-26.6,26.6,11.9,26.6,26.6Z"/><circle class="cls-1" cx="1898.87" cy="67.8" r="54.8" transform="translate(194.55 907.8) rotate(-28.28)"/><path class="cls-1" d="M1990.4,112c0,20.3-16.4,36.7-36.7,36.7s-36.7-16.4-36.7-36.7,16.4-36.7,36.7-36.7c20.2,.1,36.7,16.5,36.7,36.7Z"/><circle class="cls-1" cx="1693.7" cy="143.09" r="57.4" transform="translate(394.9 1239.54) rotate(-45)"/><circle class="cls-1" cx="1826.45" cy="159.03" r="57.4" transform="translate(1250.34 1899.52) rotate(-76.66)"/><polygon class="cls-1" points="1504.3 223 1975.8 223 1975.8 128.6 1850.9 75.4 1675.5 158.9 1504.3 223"/></g><g><path class="cls-1" d="M285.3,85.9c0,19.2-15.6,34.9-34.9,34.9s-34.9-15.6-34.9-34.9,15.6-34.9,34.9-34.9c19.3,.1,34.9,15.7,34.9,34.9Z"/><circle class="cls-1" cx="508.8" cy="217.6" r="34.9"/><path class="cls-1" d="M406.8,175.1c0,19.7-16,35.6-35.6,35.6s-35.6-15.9-35.6-35.6,16-35.6,35.6-35.6c19.7-.1,35.6,15.9,35.6,35.6Z"/><path class="cls-1" d="M215.2,180.1c0,29.7-24.1,53.8-53.8,53.8s-53.8-24.1-53.8-53.8,24.1-53.8,53.8-53.8,53.8,24.1,53.8,53.8Z"/><circle class="cls-1" cx="273.9" cy="133.7" r="50.2"/><path class="cls-1" d="M371.2,129.2c0,18.6-15.1,33.7-33.7,33.7s-33.6-15.1-33.6-33.7,15.1-33.6,33.6-33.6c18.6-.1,33.7,15,33.7,33.6Z"/><path class="cls-1" d="M259.9,129.9c0,29-23.6,52.6-52.6,52.6s-52.6-23.6-52.6-52.6,23.6-52.6,52.6-52.6c29.1,0,52.6,23.5,52.6,52.6Z"/><path class="cls-1" d="M495,202.1c0,29.1-23.6,52.6-52.6,52.6s-52.6-23.6-52.6-52.6,23.6-52.6,52.6-52.6c29,0,52.6,23.6,52.6,52.6Z"/><polygon class="cls-1" points="579.3 260.9 146.9 260.9 146.9 174.3 312.5 143.3 422.4 202.1 579.3 260.9"/></g><g><path class="cls-1" d="M642.49,135.61c0,16.2-13.1,29.4-29.4,29.4s-29.4-13.1-29.4-29.4,13.1-29.4,29.4-29.4,29.4,13.2,29.4,29.4Z"/><path class="cls-1" d="M702.39,145.21c0,26.3-21.3,47.6-47.6,47.6s-47.6-21.3-47.6-47.6,21.3-47.6,47.6-47.6c26.3,0,47.6,21.3,47.6,47.6Z"/><path class="cls-1" d="M736.19,160.11c0,22.6-18.3,40.9-40.9,40.9s-40.9-18.3-40.9-40.9,18.3-40.9,40.9-40.9c22.5,0,40.9,18.3,40.9,40.9Z"/><path class="cls-1" d="M787.39,192.41c0,22-17.8,39.8-39.8,39.8s-39.8-17.8-39.8-39.8,17.8-39.8,39.8-39.8c22,.1,39.8,17.9,39.8,39.8Z"/><path class="cls-1" d="M578.59,205.51c0,18.3-14.8,33.1-33.1,33.1s-33.1-14.8-33.1-33.1,14.8-33.1,33.1-33.1,33.1,14.8,33.1,33.1Z"/><circle class="cls-1" cx="579.59" cy="170.21" r="28.2"/><polygon class="cls-1" points="772.59 263.81 552.99 263.81 592.69 152.71 731.69 152.71 772.59 263.81"/></g><g><path class="cls-1" d="M1290.65,143.53c0,23.9-19.3,43.2-43.2,43.2s-43.2-19.3-43.2-43.2,19.3-43.2,43.2-43.2c23.8,0,43.2,19.3,43.2,43.2Z"/><path class="cls-1" d="M1486.85,235.43c0,23.9-19.3,43.2-43.2,43.2s-43.2-19.3-43.2-43.2,19.3-43.2,43.2-43.2,43.2,19.3,43.2,43.2Z"/><path class="cls-1" d="M1251.65,198.33c0,34.4-27.9,62.3-62.3,62.3s-62.3-27.9-62.3-62.3,27.9-62.3,62.3-62.3,62.3,27.9,62.3,62.3Z"/><circle class="cls-1" cx="1389.31" cy="199.41" r="58.9" transform="translate(265.92 1040.79) rotate(-45)"/><path class="cls-1" d="M1377.95,142.13c0,17.2-13.9,31.1-31.1,31.1s-31.1-13.9-31.1-31.1,13.9-31.1,31.1-31.1,31.1,13.9,31.1,31.1Z"/><path class="cls-1" d="M1162.95,153.53c0,17.2-13.9,31.1-31.1,31.1s-31.2-13.9-31.2-31.1,13.9-31.1,31.1-31.1,31.2,13.9,31.2,31.1Z"/><path class="cls-1" d="M1160.75,217.83c0,17.2-13.9,31.1-31.1,31.1s-31.1-13.9-31.1-31.1,13.9-31.1,31.1-31.1,31.1,13.9,31.1,31.1Z"/><path class="cls-1" d="M1490.05,174.33c0,20.3-16.4,36.7-36.7,36.7s-36.7-16.4-36.7-36.7,16.4-36.7,36.7-36.7c20.3,0,36.7,16.5,36.7,36.7Z"/><path class="cls-1" d="M1350.65,171.93c0,26.6-21.5,48.1-48.1,48.1s-48.1-21.5-48.1-48.1,21.5-48.1,48.1-48.1c26.5,0,48.1,21.5,48.1,48.1Z"/><path class="cls-1" d="M1291.85,187.03c0,23.9-19.3,43.2-43.2,43.2s-43.2-19.3-43.2-43.2,19.3-43.2,43.2-43.2c23.8,0,43.2,19.3,43.2,43.2Z"/></g><g><path class="cls-1" d="M507.34,333.12c.08-32.75,26.59-59.13,59.33-59.05,32.75,.08,59.13,26.59,59.05,59.33-.08,32.75-26.59,59.13-59.33,59.05-32.61-.08-59.13-26.59-59.05-59.33Z"/><path class="cls-1" d="M238.81,206.55c.08-32.75,26.59-59.13,59.33-59.05,32.75,.08,59.13,26.59,59.05,59.33-.08,32.75-26.59,59.13-59.33,59.05s-59.13-26.59-59.05-59.33Z"/><path class="cls-1" d="M560.96,258.16c.11-47.13,38.43-85.27,85.57-85.16,47.13,.11,85.27,38.43,85.16,85.57s-38.43,85.27-85.57,85.16c-47.13-.11-85.27-38.43-85.16-85.57Z"/><circle class="cls-1" cx="372.35" cy="256.23" r="80.7" transform="translate(-72.12 338.34) rotate(-45)"/><path class="cls-1" d="M387.72,334.75c.06-23.57,19.15-42.57,42.72-42.51,23.57,.06,42.57,19.15,42.51,42.72-.06,23.57-19.15,42.57-42.72,42.51-23.57-.06-42.57-19.15-42.51-42.72Z"/><path class="cls-1" d="M682.35,319.84c.06-23.57,19.15-42.57,42.72-42.51s42.7,19.15,42.65,42.72c-.06,23.57-19.15,42.57-42.72,42.51s-42.7-19.15-42.65-42.72Z"/><path class="cls-1" d="M685.58,231.74c.06-23.57,19.15-42.57,42.72-42.51,23.57,.06,42.57,19.15,42.51,42.72s-19.15,42.57-42.72,42.51c-23.57-.06-42.57-19.15-42.51-42.72Z"/><path class="cls-1" d="M234.23,290.26c.07-27.82,22.59-50.23,50.41-50.17,27.82,.07,50.23,22.59,50.17,50.41-.07,27.82-22.59,50.23-50.41,50.17-27.82-.07-50.23-22.73-50.17-50.41Z"/><path class="cls-1" d="M425.23,294.01c.09-36.45,29.62-65.84,66.06-65.75,36.45,.09,65.84,29.62,65.75,66.06-.09,36.45-29.62,65.84-66.06,65.75-36.31-.09-65.84-29.62-65.75-66.06Z"/><path class="cls-1" d="M505.84,273.51c.08-32.75,26.59-59.13,59.33-59.05,32.75,.08,59.13,26.59,59.05,59.33-.08,32.75-26.59,59.13-59.33,59.05-32.61-.08-59.13-26.59-59.05-59.33Z"/><path class="cls-1" d="M687.83,236.1c.07-29.13,24.87-52.7,55.39-52.63,30.51,.07,55.2,23.76,55.13,52.89-.07,29.13-24.87,52.7-55.39,52.63-30.51-.07-55.2-23.76-55.13-52.89Z"/><path class="cls-1" d="M690.84,283.47c.07-29.13,24.87-52.7,55.39-52.63,30.51,.07,55.2,23.76,55.13,52.89-.07,29.13-24.87,52.7-55.39,52.63-30.51-.07-55.2-23.76-55.13-52.89Z"/></g><g><path class="cls-1" d="M1425.51,349.81c.08-32.75,26.59-59.13,59.33-59.05,32.75,.08,59.13,26.59,59.05,59.33-.08,32.75-26.59,59.13-59.33,59.05-32.61-.08-59.13-26.59-59.05-59.33Z"/><path class="cls-1" d="M1156.98,223.24c.08-32.75,26.59-59.13,59.33-59.05,32.75,.08,59.13,26.59,59.05,59.33-.08,32.75-26.59,59.13-59.33,59.05s-59.13-26.59-59.05-59.33Z"/><path class="cls-1" d="M1479.13,274.85c.11-47.13,38.43-85.27,85.57-85.16,47.13,.11,85.27,38.43,85.16,85.57s-38.43,85.27-85.57,85.16c-47.13-.11-85.27-38.43-85.16-85.57Z"/><circle class="cls-1" cx="1290.52" cy="272.91" r="80.7" transform="translate(185.01 992.47) rotate(-45)"/><path class="cls-1" d="M1600.52,336.52c.06-23.57,19.15-42.57,42.72-42.51s42.7,19.15,42.65,42.72c-.06,23.57-19.15,42.57-42.72,42.51s-42.7-19.15-42.65-42.72Z"/><path class="cls-1" d="M1603.75,248.43c.06-23.57,19.15-42.57,42.72-42.51,23.57,.06,42.57,19.15,42.51,42.72-.06,23.57-19.15,42.57-42.72,42.51-23.57-.06-42.57-19.15-42.51-42.72Z"/><path class="cls-1" d="M1152.4,306.95c.07-27.82,22.59-50.23,50.41-50.17,27.82,.07,50.23,22.59,50.17,50.41-.07,27.82-22.59,50.23-50.41,50.17-27.82-.07-50.23-22.73-50.17-50.41Z"/><path class="cls-1" d="M1343.4,310.69c.09-36.45,29.62-65.84,66.06-65.75,36.45,.09,65.84,29.62,65.75,66.06-.09,36.45-29.62,65.84-66.06,65.75-36.31-.09-65.84-29.62-65.75-66.06Z"/><path class="cls-1" d="M1424.01,290.2c.08-32.75,26.59-59.13,59.33-59.05,32.75,.08,59.13,26.59,59.05,59.33s-26.59,59.13-59.33,59.05c-32.61-.08-59.13-26.59-59.05-59.33Z"/></g><g><path class="cls-1" d="M1706.17,308.8c.08-32.75,26.59-59.13,59.33-59.05,32.75,.08,59.13,26.59,59.05,59.33-.08,32.75-26.59,59.13-59.33,59.05-32.61-.08-59.13-26.59-59.05-59.33Z"/><path class="cls-1" d="M1437.63,182.23c.08-32.75,26.59-59.13,59.33-59.05,32.75,.08,59.13,26.59,59.05,59.33-.08,32.75-26.59,59.13-59.33,59.05s-59.13-26.59-59.05-59.33Z"/><path class="cls-1" d="M1759.78,233.84c.11-47.13,38.43-85.27,85.57-85.16,47.13,.11,85.27,38.43,85.16,85.57s-38.43,85.27-85.57,85.16c-47.13-.11-85.27-38.43-85.16-85.57Z"/><circle class="cls-1" cx="1571.17" cy="231.9" r="80.7" transform="translate(296.2 1178.91) rotate(-45)"/><path class="cls-1" d="M1586.54,310.43c.06-23.57,19.15-42.57,42.72-42.51,23.57,.06,42.57,19.15,42.51,42.72s-19.15,42.57-42.72,42.51c-23.57-.06-42.57-19.15-42.51-42.72Z"/><path class="cls-1" d="M1881.17,295.51c.06-23.57,19.15-42.57,42.72-42.51s42.7,19.15,42.65,42.72c-.06,23.57-19.15,42.57-42.72,42.51s-42.7-19.15-42.65-42.72Z"/><path class="cls-1" d="M1884.4,207.42c.06-23.57,19.15-42.57,42.72-42.51,23.57,.06,42.57,19.15,42.51,42.72-.06,23.57-19.15,42.57-42.72,42.51-23.57-.06-42.57-19.15-42.51-42.72Z"/><path class="cls-1" d="M1433.05,265.94c.07-27.82,22.59-50.23,50.41-50.17,27.82,.07,50.23,22.59,50.17,50.41-.07,27.82-22.59,50.23-50.41,50.17-27.82-.07-50.23-22.73-50.17-50.41Z"/><path class="cls-1" d="M1624.05,269.69c.09-36.45,29.62-65.84,66.06-65.75,36.45,.09,65.84,29.62,65.75,66.06-.09,36.45-29.62,65.84-66.06,65.75-36.31-.09-65.84-29.62-65.75-66.06Z"/><path class="cls-1" d="M1704.66,249.19c.08-32.75,26.59-59.13,59.33-59.05,32.75,.08,59.13,26.59,59.05,59.33s-26.59,59.13-59.33,59.05c-32.61-.08-59.13-26.59-59.05-59.33Z"/></g></svg>