<?xml version="1.0" encoding="utf-8"?>
<!-- Generator: Adobe Illustrator 26.5.0, SVG Export Plug-In . SVG Version: 6.00 Build 0)  -->
<svg version="1.1" id="Layer_1" xmlns="http://www.w3.org/2000/svg" xmlns:xlink="http://www.w3.org/1999/xlink" x="0px" y="0px"
	 viewBox="0 0 1920 300" style="enable-background:new 0 0 1920 300;" xml:space="preserve">
<style type="text/css">
	.st0{fill:#65D19A;}
</style>
<g>
	<path class="st0" d="M557.5,136.2c0,28.7-23.3,52-52,52c-28.7,0-52-23.3-52-52s23.3-52,52-52C534.3,84.2,557.5,107.5,557.5,136.2z"
		/>
	<path class="st0" d="M792.3,244.7c0,28.7-23.3,52-52,52s-52-23.3-52-52c0-28.7,23.3-52,52-52S792.3,215.9,792.3,244.7z"/>
	<path class="st0" d="M510.6,202.2c0,41.4-33.6,74.9-74.9,74.9s-74.9-33.6-74.9-74.9s33.6-74.9,74.9-74.9S510.6,160.8,510.6,202.2z"
		/>
	
		<ellipse transform="matrix(0.8632 -0.5049 0.5049 0.8632 -10.1893 369.3157)" class="st0" cx="676.3" cy="203.5" rx="70.8" ry="70.8"/>
	<path class="st0" d="M662.6,134.5c0,20.7-16.8,37.5-37.5,37.5s-37.5-16.8-37.5-37.5c0-20.7,16.8-37.5,37.5-37.5
		S662.6,113.8,662.6,134.5z"/>
	<path class="st0" d="M403.9,156.4c0,16.2-13.1,29.4-29.4,29.4s-29.4-13.1-29.4-29.4c0-16.2,13.1-29.4,29.4-29.4
		S403.9,140.2,403.9,156.4z"/>
	<path class="st0" d="M401.2,225.7c0,20.7-16.8,37.5-37.5,37.5c-20.7,0-37.5-16.8-37.5-37.5c0-20.7,16.8-37.5,37.5-37.5
		C384.4,188.2,401.2,205,401.2,225.7z"/>
	<path class="st0" d="M609.1,98.9c0,24.4-19.8,44.2-44.2,44.2c-24.4,0-44.2-19.8-44.2-44.2c0-24.4,19.8-44.2,44.2-44.2
		C589.3,54.7,609.1,74.5,609.1,98.9z"/>
	<polygon class="st0" points="689.7,276.3 462.8,276.3 462.8,154.5 568.6,110.9 689.7,154.5 	"/>
	<path class="st0" d="M741.3,234.9c0,28.7-23.3,52-52,52c-28.7,0-52-23.3-52-52s23.3-52,52-52C718.1,182.9,741.3,206.2,741.3,234.9z
		"/>
	<path class="st0" d="M632,208.7c0,45.9-37.2,83.1-83.2,83.1c-45.9,0-83.2-37.2-83.2-83.1s37.2-83.2,83.2-83.2
		C594.8,125.5,632,162.8,632,208.7z"/>
	<path class="st0" d="M567.8,202.8c0,48.1-39,87.2-87.2,87.2c-48.1,0-87.2-39-87.2-87.2s39-87.2,87.2-87.2
		C528.8,115.6,567.8,154.6,567.8,202.8z"/>
	<path class="st0" d="M679.9,244.1c0,28.7-23.3,52-52,52c-28.7,0-52-23.3-52-52s23.3-52,52-52C656.6,192.1,679.9,215.4,679.9,244.1z
		"/>
	<path class="st0" d="M474.4,147c0,23.1-18.7,41.9-41.9,41.9s-41.9-18.7-41.9-41.9c0-23.1,18.7-41.9,41.9-41.9
		S474.4,123.9,474.4,147z"/>
	<path class="st0" d="M396.3,183.6c0,18.5-15,33.4-33.4,33.4c-18.5,0-33.4-15-33.4-33.4c0-18.5,15-33.4,33.4-33.4
		C381.3,150.2,396.3,165.1,396.3,183.6z"/>
</g>
</svg>
