<?xml version="1.0" encoding="utf-8"?>
<!-- Generator: Adobe Illustrator 26.5.0, SVG Export Plug-In . SVG Version: 6.00 Build 0)  -->
<svg version="1.1" id="Layer_1" xmlns="http://www.w3.org/2000/svg" xmlns:xlink="http://www.w3.org/1999/xlink" x="0px" y="0px"
	 viewBox="0 0 1920 300" style="enable-background:new 0 0 1920 300;" xml:space="preserve">
<style type="text/css">
	.st0{fill:#FFFFFF;}
</style>
<g>
	<path class="st0" d="M516.1,202c0,18.9-15.3,34.2-34.2,34.2c-18.9,0-34.2-15.3-34.2-34.2s15.3-34.2,34.2-34.2
		S516.1,183.1,516.1,202z"/>
	<path class="st0" d="M592,191.8c0,30.6-24.8,55.4-55.4,55.4s-55.4-24.8-55.4-55.4s24.8-55.4,55.4-55.4S592,161.1,592,191.8z"/>
	<path class="st0" d="M625.2,230.6c0,26.3-21.3,47.6-47.6,47.6S530,256.9,530,230.6s21.3-47.6,47.6-47.6
		C603.9,182.9,625.2,204.3,625.2,230.6z"/>
	<path class="st0" d="M685,268.2c0,25.6-20.7,46.3-46.3,46.3s-46.3-20.7-46.3-46.3c0-25.6,20.7-46.3,46.3-46.3
		C664.2,221.9,685,242.6,685,268.2z"/>
	<path class="st0" d="M441.6,283.5c0,21.3-17.3,38.6-38.6,38.6c-21.3,0-38.6-17.3-38.6-38.6c0-21.3,17.3-38.6,38.6-38.6
		C424.4,244.9,441.6,262.1,441.6,283.5z"/>
	<circle class="st0" cx="442.8" cy="242.4" r="32.9"/>
	<polygon class="st0" points="667.7,325 411.8,325 458.1,221.9 620,221.9 	"/>
</g>
<g>
	<path class="st0" d="M954.7,164.8c0,15-12.1,27.1-27.1,27.1s-27.1-12.2-27.1-27.1c0-15,12.2-27.1,27.1-27.1
		S954.7,149.8,954.7,164.8z"/>
	<path class="st0" d="M880.5,221.9c0,15-12.2,27.1-27.1,27.1c-15,0-27.1-12.2-27.1-27.1c0-15,12.2-27.1,27.1-27.1
		C868.4,194.8,880.5,206.9,880.5,221.9z"/>
	<circle class="st0" cx="980.7" cy="258.8" r="32.7"/>
	<path class="st0" d="M943.3,207.3c0,23.1-18.7,41.8-41.8,41.8s-41.8-18.7-41.8-41.8s18.7-41.8,41.8-41.8S943.3,184.2,943.3,207.3z"
		/>
	<path class="st0" d="M774,251.7c0,19.5-15.8,35.4-35.4,35.4c-19.5,0-35.4-15.8-35.4-35.4s15.8-35.4,35.4-35.4
		C758.2,216.3,774,232.2,774,251.7z"/>
	<path class="st0" d="M718.3,271c0,12.7-10.3,22.9-22.9,22.9c-12.7,0-22.9-10.3-22.9-22.9s10.3-22.9,22.9-22.9
		C708.1,248.1,718.3,258.4,718.3,271z"/>
	
		<ellipse transform="matrix(0.7071 -0.7071 0.7071 0.7071 170.1583 741.9308)" class="st0" cx="980.7" cy="165.6" rx="47.2" ry="47.2"/>
	<path class="st0" d="M1059.6,203.9c0,17.5-14.2,31.6-31.6,31.6c-17.5,0-31.6-14.2-31.6-31.6c0-17.5,14.2-31.6,31.6-31.6
		C1045.4,172.2,1059.6,186.4,1059.6,203.9z"/>
	
		<ellipse transform="matrix(0.7071 -0.7071 0.7071 0.7071 72.443 635.9699)" class="st0" cx="803.9" cy="230.5" rx="49.4" ry="49.4"/>
	<ellipse class="st0" cx="918.3" cy="244.3" rx="49.4" ry="49.4"/>
	<polygon class="st0" points="640.7,299.4 1047,299.4 1047,218.1 939.4,172.2 788.2,244.2 	"/>
</g>
<g>
	<path class="st0" d="M129.5,143.3c0,18.1-14.7,32.7-32.7,32.7c-18.1,0-32.7-14.7-32.7-32.7c0-18.1,14.7-32.7,32.7-32.7
		C114.8,110.6,129.5,125.2,129.5,143.3z"/>
	<circle class="st0" cx="339.5" cy="267" r="32.7"/>
	<path class="st0" d="M243.7,227c0,18.5-15,33.5-33.5,33.5s-33.5-15-33.5-33.5s15-33.5,33.5-33.5C228.7,193.6,243.7,208.5,243.7,227
		z"/>
	<path class="st0" d="M63.6,231.8c0,27.9-22.6,50.6-50.6,50.6c-27.9,0-50.6-22.6-50.6-50.6c0-27.9,22.6-50.6,50.6-50.6
		C41,181.2,63.6,203.8,63.6,231.8z"/>
	<ellipse class="st0" cx="118.9" cy="188.1" rx="47.2" ry="47.2"/>
	<path class="st0" d="M210.2,183.9c0,17.5-14.2,31.6-31.6,31.6c-17.5,0-31.6-14.2-31.6-31.6c0-17.5,14.2-31.6,31.6-31.6
		C196.1,152.3,210.2,166.5,210.2,183.9z"/>
	<path class="st0" d="M105.7,184.6c0,27.3-22.1,49.4-49.4,49.4S6.8,211.9,6.8,184.6s22.1-49.4,49.4-49.4
		C83.6,135.2,105.7,157.3,105.7,184.6z"/>
	<path class="st0" d="M326.5,252.4c0,27.3-22.1,49.4-49.4,49.4s-49.4-22.1-49.4-49.4s22.1-49.4,49.4-49.4S326.5,225.1,326.5,252.4z"
		/>
	<polygon class="st0" points="405.8,307.7 -0.5,307.7 -0.5,226.4 155.1,197.2 258.3,252.4 	"/>
</g>
<g>
	<path class="st0" d="M672.1,228.9c0,18.9-15.3,34.2-34.2,34.2s-34.2-15.3-34.2-34.2s15.3-34.2,34.2-34.2
		C656.8,194.7,672.1,210,672.1,228.9z"/>
	<path class="st0" d="M748,218.6c0,30.6-24.8,55.4-55.4,55.4c-30.6,0-55.4-24.8-55.4-55.4s24.8-55.4,55.4-55.4
		C723.2,163.2,748,188,748,218.6z"/>
	<path class="st0" d="M781.2,257.4c0,26.3-21.3,47.6-47.6,47.6S686,283.7,686,257.4s21.3-47.6,47.6-47.6
		C759.9,209.8,781.2,231.1,781.2,257.4z"/>
	<path class="st0" d="M841,295.1c0,25.6-20.7,46.3-46.3,46.3s-46.3-20.7-46.3-46.3c0-25.6,20.7-46.3,46.3-46.3
		C820.2,248.8,841,269.5,841,295.1z"/>
	<path class="st0" d="M597.6,310.3c0,21.3-17.3,38.6-38.6,38.6s-38.6-17.3-38.6-38.6c0-21.3,17.3-38.6,38.6-38.6
		C580.4,271.7,597.6,289,597.6,310.3z"/>
	<circle class="st0" cx="598.8" cy="269.3" r="32.9"/>
	<polygon class="st0" points="823.7,351.8 567.8,351.8 614.1,248.8 776,248.8 	"/>
</g>
<g>
	<path class="st0" d="M394.1,185.6c0,18.1-14.7,32.7-32.7,32.7c-18.1,0-32.7-14.7-32.7-32.7c0-18.1,14.7-32.7,32.7-32.7
		C379.4,152.8,394.1,167.5,394.1,185.6z"/>
	<circle class="st0" cx="604.1" cy="309.3" r="32.7"/>
	<path class="st0" d="M508.3,269.3c0,18.5-15,33.5-33.5,33.5s-33.5-15-33.5-33.5s15-33.5,33.5-33.5
		C493.3,235.8,508.3,250.8,508.3,269.3z"/>
	<path class="st0" d="M328.2,274c0,27.9-22.6,50.6-50.6,50.6c-27.9,0-50.6-22.6-50.6-50.6c0-27.9,22.6-50.6,50.6-50.6
		C305.6,223.5,328.2,246.1,328.2,274z"/>
	<ellipse class="st0" cx="383.4" cy="230.5" rx="47.2" ry="47.2"/>
	<path class="st0" d="M474.8,226.2c0,17.5-14.2,31.6-31.6,31.6c-17.5,0-31.6-14.2-31.6-31.6c0-17.5,14.2-31.6,31.6-31.6
		C460.6,194.6,474.8,208.7,474.8,226.2z"/>
	<path class="st0" d="M370.2,226.8c0,27.3-22.1,49.4-49.4,49.4s-49.4-22.1-49.4-49.4s22.1-49.4,49.4-49.4
		C348.1,177.4,370.2,199.5,370.2,226.8z"/>
	<path class="st0" d="M591.1,294.7c0,27.3-22.1,49.4-49.4,49.4c-27.3,0-49.4-22.1-49.4-49.4s22.1-49.4,49.4-49.4
		C569,245.3,591.1,267.4,591.1,294.7z"/>
	<polygon class="st0" points="670.4,349.9 264.1,349.9 264.1,268.6 419.7,239.5 522.9,294.7 	"/>
	<rect x="-114" y="248.9" class="st0" width="2274.8" height="235.7"/>
</g>
<g>
	<path class="st0" d="M1448.8,217.7c0,17-13.8,30.8-30.8,30.8s-30.8-13.8-30.8-30.8s13.8-30.8,30.8-30.8S1448.8,200.7,1448.8,217.7z
		"/>
	<path class="st0" d="M1517,208.5c0,27.5-22.3,49.8-49.8,49.8s-49.8-22.3-49.8-49.8s22.3-49.8,49.8-49.8S1517,181,1517,208.5z"/>
	<path class="st0" d="M1546.9,243.4c0,23.6-19.2,42.8-42.8,42.8c-23.6,0-42.8-19.2-42.8-42.8c0-23.7,19.2-42.8,42.8-42.8
		C1527.7,200.6,1546.9,219.7,1546.9,243.4z"/>
	<path class="st0" d="M1600.6,277.2c0,23-18.7,41.7-41.7,41.7s-41.7-18.7-41.7-41.7s18.7-41.7,41.7-41.7
		C1582,235.6,1600.6,254.2,1600.6,277.2z"/>
	<path class="st0" d="M1381.8,290.9c0,19.2-15.5,34.7-34.7,34.7s-34.7-15.5-34.7-34.7s15.5-34.7,34.7-34.7
		C1366.3,256.2,1381.8,271.8,1381.8,290.9z"/>
	<circle class="st0" cx="1382.9" cy="254" r="29.6"/>
	<polygon class="st0" points="1585,328.2 1355,328.2 1396.6,235.6 1542.2,235.6 	"/>
</g>
<g>
	<path class="st0" d="M1843.1,183.3c0,13.5-10.9,24.4-24.4,24.4s-24.4-10.9-24.4-24.4s10.9-24.4,24.4-24.4
		C1832.1,158.9,1843.1,169.8,1843.1,183.3z"/>
	<path class="st0" d="M1776.4,234.6c0,13.5-10.9,24.4-24.4,24.4s-24.4-10.9-24.4-24.4s10.9-24.4,24.4-24.4
		C1765.5,210.2,1776.4,221.1,1776.4,234.6z"/>
	<circle class="st0" cx="1866.5" cy="267.7" r="29.4"/>
	<path class="st0" d="M1832.9,221.5c0,20.7-16.8,37.6-37.6,37.6c-20.7,0-37.6-16.8-37.6-37.6c0-20.7,16.8-37.6,37.6-37.6
		C1816,183.9,1832.9,200.7,1832.9,221.5z"/>
	<path class="st0" d="M1680.6,261.4c0,17.6-14.2,31.8-31.8,31.8c-17.6,0-31.8-14.2-31.8-31.8c0-17.6,14.2-31.8,31.8-31.8
		C1666.4,229.6,1680.6,243.8,1680.6,261.4z"/>
	<path class="st0" d="M1630.6,278.8c0,11.4-9.2,20.6-20.6,20.6s-20.6-9.2-20.6-20.6s9.2-20.6,20.6-20.6
		C1621.4,258.2,1630.6,267.4,1630.6,278.8z"/>
	
		<ellipse transform="matrix(0.8806 -0.4738 0.4738 0.8806 135.6366 906.3177)" class="st0" cx="1866.5" cy="184" rx="42.4" ry="42.4"/>
	<path class="st0" d="M1937.4,218.4c0,15.7-12.7,28.4-28.4,28.4c-15.7,0-28.4-12.7-28.4-28.4s12.7-28.4,28.4-28.4
		C1924.6,189.9,1937.4,202.7,1937.4,218.4z"/>
	
		<ellipse transform="matrix(0.7071 -0.7071 0.7071 0.7071 328.81 1278.3878)" class="st0" cx="1707.6" cy="242.3" rx="44.4" ry="44.4"/>
	
		<ellipse transform="matrix(0.2307 -0.973 0.973 0.2307 1144.879 1957.4386)" class="st0" cx="1810.3" cy="254.7" rx="44.4" ry="44.4"/>
	<polygon class="st0" points="1560.8,304.3 1926.1,304.3 1926.1,231.2 1829.3,189.9 1693.4,254.6 	"/>
</g>
<g>
	<path class="st0" d="M1101.2,164.9c0,16.3-13.2,29.4-29.4,29.4c-16.3,0-29.4-13.2-29.4-29.4c0-16.3,13.2-29.4,29.4-29.4
		S1101.2,148.7,1101.2,164.9z"/>
	<circle class="st0" cx="1290" cy="276.1" r="29.4"/>
	<path class="st0" d="M1203.9,240.2c0,16.6-13.5,30.1-30.1,30.1s-30.1-13.5-30.1-30.1s13.5-30.1,30.1-30.1
		C1190.4,210.1,1203.9,223.6,1203.9,240.2z"/>
	<path class="st0" d="M1042,244.5c0,25.1-20.4,45.5-45.5,45.5S951,269.6,951,244.5s20.3-45.5,45.5-45.5S1042,219.3,1042,244.5z"/>
	
		<ellipse transform="matrix(0.1606 -0.987 0.987 0.1606 713.7569 1249.764)" class="st0" cx="1091.7" cy="205.2" rx="42.4" ry="42.4"/>
	<path class="st0" d="M1173.8,201.5c0,15.7-12.7,28.4-28.4,28.4c-15.7,0-28.4-12.7-28.4-28.4s12.7-28.4,28.4-28.4
		C1161.1,173,1173.8,185.8,1173.8,201.5z"/>
	<path class="st0" d="M1079.8,202c0,24.5-19.9,44.4-44.4,44.4S991,226.5,991,202s19.9-44.4,44.4-44.4S1079.8,177.5,1079.8,202z"/>
	<path class="st0" d="M1278.4,263c0,24.5-19.9,44.4-44.4,44.4s-44.4-19.9-44.4-44.4s19.9-44.4,44.4-44.4S1278.4,238.5,1278.4,263z"
		/>
	<polygon class="st0" points="1349.6,312.7 984.4,312.7 984.4,239.6 1124.3,213.4 1217,263 	"/>
</g>
<g>
	<path class="st0" d="M1589,240.9c0,17-13.8,30.8-30.8,30.8s-30.8-13.8-30.8-30.8s13.8-30.8,30.8-30.8
		C1575.3,210.1,1589,223.9,1589,240.9z"/>
	<path class="st0" d="M1657.3,231.6c0,27.5-22.3,49.8-49.8,49.8s-49.8-22.3-49.8-49.8s22.3-49.8,49.8-49.8
		S1657.3,204.1,1657.3,231.6z"/>
	<path class="st0" d="M1687.1,266.5c0,23.6-19.2,42.8-42.8,42.8c-23.6,0-42.8-19.2-42.8-42.8c0-23.7,19.2-42.8,42.8-42.8
		C1668,223.7,1687.1,242.9,1687.1,266.5z"/>
	<path class="st0" d="M1740.9,300.4c0,23-18.7,41.7-41.7,41.7s-41.7-18.7-41.7-41.7s18.7-41.7,41.7-41.7
		C1722.2,258.7,1740.9,277.4,1740.9,300.4z"/>
	<path class="st0" d="M1522.1,314.1c0,19.2-15.5,34.7-34.7,34.7s-34.7-15.5-34.7-34.7s15.5-34.7,34.7-34.7
		C1506.5,279.4,1522.1,294.9,1522.1,314.1z"/>
	<circle class="st0" cx="1523.1" cy="277.2" r="29.6"/>
	<polygon class="st0" points="1725.3,351.4 1495.2,351.4 1536.9,258.7 1682.5,258.7 	"/>
</g>
<g>
	<path class="st0" d="M1339.1,202.9c0,16.3-13.2,29.4-29.4,29.4c-16.3,0-29.4-13.2-29.4-29.4c0-16.3,13.2-29.4,29.4-29.4
		S1339.1,186.7,1339.1,202.9z"/>
	<circle class="st0" cx="1527.9" cy="314.1" r="29.4"/>
	<path class="st0" d="M1441.7,278.2c0,16.6-13.5,30.1-30.1,30.1s-30.1-13.5-30.1-30.1s13.5-30.1,30.1-30.1
		C1428.3,248.1,1441.7,261.6,1441.7,278.2z"/>
	<path class="st0" d="M1279.9,282.5c0,25.1-20.4,45.5-45.5,45.5s-45.5-20.4-45.5-45.5s20.3-45.5,45.5-45.5
		C1259.5,237,1279.9,257.4,1279.9,282.5z"/>
	
		<ellipse transform="matrix(0.1606 -0.987 0.987 0.1606 875.8342 1516.4308)" class="st0" cx="1329.5" cy="243.3" rx="42.4" ry="42.4"/>
	<path class="st0" d="M1411.7,239.5c0,15.7-12.7,28.4-28.4,28.4c-15.7,0-28.4-12.7-28.4-28.4s12.7-28.4,28.4-28.4
		C1398.9,211,1411.7,223.8,1411.7,239.5z"/>
	<path class="st0" d="M1317.7,240c0,24.5-19.9,44.4-44.4,44.4s-44.4-19.9-44.4-44.4s19.9-44.4,44.4-44.4
		C1297.8,195.6,1317.7,215.5,1317.7,240z"/>
	<path class="st0" d="M1516.2,301c0,24.5-19.9,44.4-44.4,44.4s-44.4-19.9-44.4-44.4s19.9-44.4,44.4-44.4
		C1496.3,256.6,1516.2,276.5,1516.2,301z"/>
	<polygon class="st0" points="1587.5,350.7 1222.2,350.7 1222.2,277.6 1362.1,251.4 1454.9,301 	"/>
</g>
</svg>
