<?xml version="1.0" encoding="utf-8"?>
<!-- Generator: Adobe Illustrator 26.5.0, SVG Export Plug-In . SVG Version: 6.00 Build 0)  -->
<svg version="1.1" id="Layer_1" xmlns="http://www.w3.org/2000/svg" xmlns:xlink="http://www.w3.org/1999/xlink" x="0px" y="0px"
	 viewBox="0 0 1920 300" style="enable-background:new 0 0 1920 300;" xml:space="preserve">
<style type="text/css">
	.st0{fill:#65D19A;}
</style>
<g>
	<path class="st0" d="M1510.5,166.5c0,15,12.1,27.1,27.1,27.1c15,0,27.1-12.1,27.1-27.1c0-15-12.1-27.1-27.1-27.1
		C1522.6,139.4,1510.5,151.5,1510.5,166.5z"/>
	<path class="st0" d="M1387.4,224.2c0,15,12.1,27.1,27.1,27.1c15,0,27.1-12.1,27.1-27.1c0-15-12.1-27.1-27.1-27.1
		C1399.5,197.1,1387.4,209.2,1387.4,224.2z"/>
	<path class="st0" d="M1534.9,200.9c0,21.6,17.5,39.1,39.1,39.1s39.1-17.5,39.1-39.1s-17.5-39.1-39.1-39.1
		S1534.9,179.3,1534.9,200.9z"/>
	
		<ellipse transform="matrix(0.5049 -0.8632 0.8632 0.5049 543.1629 1350.1583)" class="st0" cx="1448.6" cy="201.6" rx="36.9" ry="36.9"/>
	<path class="st0" d="M1455.7,165.6c0,10.8,8.7,19.5,19.5,19.5c10.8,0,19.5-8.7,19.5-19.5c0-10.8-8.7-19.5-19.5-19.5
		C1464.5,146.1,1455.7,154.9,1455.7,165.6z"/>
	<path class="st0" d="M1590.6,172.8c0,10.8,8.7,19.5,19.5,19.5s19.5-8.7,19.5-19.5c0-10.8-8.7-19.5-19.5-19.5
		S1590.6,162,1590.6,172.8z"/>
	<path class="st0" d="M1592,213.2c0,10.8,8.7,19.5,19.5,19.5c10.8,0,19.5-8.7,19.5-19.5c0-10.8-8.7-19.5-19.5-19.5
		C1600.7,193.6,1592,202.4,1592,213.2z"/>
	<path class="st0" d="M1483.6,147.1c0,12.7,10.3,23,23,23c12.7,0,23-10.3,23-23c0-12.7-10.3-23-23-23
		C1493.9,124,1483.6,134.3,1483.6,147.1z"/>
	<polygon class="st0" points="1441.6,239.6 1559.9,239.6 1559.9,176.1 1504.7,153.3 1441.6,176.1 	"/>
	<ellipse class="st0" cx="1460.9" cy="215" rx="43.8" ry="41.5"/>
	<ellipse class="st0" cx="1517" cy="224.1" rx="43.8" ry="41.5"/>
	<ellipse class="st0" cx="1570.7" cy="225.7" rx="43.8" ry="41.5"/>
	<ellipse class="st0" cx="1571.5" cy="194.8" rx="43.8" ry="41.5"/>
	<path class="st0" d="M1601.4,193.9c0,10.8,8.7,19.5,19.5,19.5s19.5-8.7,19.5-19.5c0-10.8-8.7-19.5-19.5-19.5
		S1601.4,183.1,1601.4,193.9z"/>
</g>
<path class="st0" d="M1729.4,107.8c0,9.3,7.5,16.8,16.8,16.8s16.8-7.5,16.8-16.8s-7.5-16.8-16.8-16.8S1729.4,98.5,1729.4,107.8z"/>
<path class="st0" d="M1708.6,88.7c0,9.8,8,17.8,17.8,17.8c9.8,0,17.8-8,17.8-17.8c0-9.8-8-17.8-17.8-17.8
	C1716.6,70.9,1708.6,78.9,1708.6,88.7z"/>
<path class="st0" d="M1740.3,107.2c8.7,3.4,18.5-1,21.9-9.8c3.4-8.7-1-18.5-9.8-21.9c-8.7-3.4-18.5,1-21.9,9.8
	C1727.2,94.1,1731.5,103.9,1740.3,107.2z"/>
<path class="st0" d="M1722.9,118.6c7.4,2.8,15.8-0.9,18.6-8.3c2.8-7.4-0.9-15.8-8.3-18.6c-7.4-2.8-15.8,0.9-18.6,8.3
	C1711.7,107.4,1715.5,115.7,1722.9,118.6z"/>
<path class="st0" d="M1748.6,96c0,9.3,7.5,16.8,16.8,16.8c9.3,0,16.8-7.5,16.8-16.8s-7.5-16.8-16.8-16.8
	C1756.1,79.2,1748.6,86.7,1748.6,96z"/>
</svg>
