<?xml version="1.0" encoding="utf-8"?>
<!-- Generator: Adobe Illustrator 26.5.0, SVG Export Plug-In . SVG Version: 6.00 Build 0)  -->
<svg version="1.1" id="Layer_1" xmlns="http://www.w3.org/2000/svg" xmlns:xlink="http://www.w3.org/1999/xlink" x="0px" y="0px"
	 viewBox="0 0 815.5 932.7" style="enable-background:new 0 0 815.5 932.7;" xml:space="preserve">
<style type="text/css">
	.st0{display:none;}
	.st1{display:inline;}
	.st2{fill:#6DE8AA;}
	.st3{enable-background:new    ;}
	.st4{fill:#0B2A42;}
	.st5{fill:#053A69;}
</style>
<g id="laptop" class="st0">
	<g class="st1">
		<g id="OXVCRl.tif_5_">
			<g>
				<path class="st2" d="M192.5,544.2c0-1,0.7-2,1.7-2.2c2.3-0.6,7.5-11.9,9.1-13c3.3-2.2,4.7-9.7,8.1-11.8c3.1-2.1,5.2-4.9,8.2-6.9
					c0.9-0.6,1.5-2,1.5-3.1c-0.4-9.3,0-18.5,0-27.8c0-14.2,0.1-28.5,0.2-42.7c0.1-14.4,0.2-28.8,0.2-43.2
					c0.1-14.1,0.3-28.1,0.2-42.2c0-5.1,1.5-9.5,4.2-13.7c3.7-5.7,9-8.9,15.4-10.7c0.6-0.2,1.5-0.3,2.1-0.3
					c29.3,0.2,58.7,0.3,88.1,0.5c26,0.1,51.9,0.3,77.9,0.4c26.2,0.1,52.5,0.3,78.7,0.5c4.3,0,8.7,0.1,13,0c3.7,0,7,0.9,10.5,2.2
					c6.1,2.4,9.8,7,12.6,12.5c1.4,2.8,1.8,5.9,1.8,9c-0.1,14.5-0.2,29-0.2,43.5c-0.1,14.4-0.2,28.7-0.2,43
					c-0.1,14.2-0.2,28.5-0.2,42.7c0,9.2-0.1,18.4-0.2,27.6c0,1,0.5,2,1.3,2.5c7.7,4.9,15.6,24.6,23.5,29.3c1.7,1,2.5,2,2,4.5
					c-0.6,3.3-0.8,6.7-0.1,10.1c1,5-1.6,8-4.4,10.9c-2.7,2.7-6.1,4.4-9.8,5.4c-0.7,0.2-1.8,0.3-2.5,0.3c-19.5-0.1-39-0.2-58.5-0.3
					c-20.5-0.1-41-0.2-61.5-0.3c-20.2-0.1-40.5-0.2-60.7-0.4c-20.1-0.1-40.1-0.2-60.2-0.3c-20.2-0.1-40.5-0.2-60.7-0.4
					c-7.8,0-15.6,0-23.4-0.2c-3.9-0.1-7.6-1.7-10.4-4.4c-1.3-1.2-2.6-2.4-3.7-3.7c-1.9-2.4-3.1-5.2-3.6-8.2
					C192.3,549.5,192.4,547.5,192.5,544.2z"/>
			</g>
		</g>
		<g id="OXVCRl.tif_1_">
			<g id="OXVCRl.tif_4_" class="st3">
				<g>
					<path class="st4" d="M191.4,540.6c2.8,0.4,7.8-10.4,9.8-11.8c4.3-2.9,5.9-11.4,10.1-14.5c2.5-1.8,5.2-3.3,7.9-4.8
						c0.7-0.4,1-0.9,0.9-1.6c-0.4-9.3-0.1-18.6-0.2-27.9c-0.1-14.4,0-28.8,0-43.1c0-14.5,0-29.1,0-43.6c0-14.2,0.1-28.4-0.1-42.6
						c-0.1-5.1,1.5-9.6,4.2-13.9c3.6-5.8,9.1-9.1,15.5-10.9c0.6-0.2,1.6-0.3,2.1-0.3c29.6,0,59.1,0,88.6,0c26.1,0,52.3,0,78.4,0
						c26.4,0,52.8,0,79.2,0c4.4,0,8.7,0,13.1,0c3.7-0.1,7.1,0.8,10.5,2.2c6.1,2.4,9.9,7,12.7,12.6c1.4,2.8,1.8,6,1.8,9.1
						c0,14.7,0,29.3,0,44c0,14.5,0,29,0,43.5c0,14.4,0,28.8,0,43.1c0,9.3,0,18.6,0,27.9c0,1,0.5,2,1.4,2.5
						c7.8,5,15.8,24.6,23.8,29.3c1.7,1,2.5,2.1,2.1,4.6c-0.5,3.4-0.7,6.8-0.1,10.2c1,5-1.5,8.1-4.4,11c-2.7,2.7-6.1,4.5-9.8,5.5
						c-0.7,0.2-1.8,0.3-2.5,0.3c-19.6,0-39.3,0-58.9,0c-20.6,0-41.3,0-62,0c-20.4,0-40.7,0-61.1,0c-20.2,0-40.4,0-60.6,0
						c-20.4,0-40.7,0-61.1,0c-7.8,0-15.7,0-23.5,0c-4.1,0-7.7-1.6-10.7-4.5c-1.2-1.2-2.6-2.3-3.7-3.7c-1.9-2.4-3.2-5.2-3.7-8.3
						L191.4,540.6L191.4,540.6z M374.1,332.2c-7.4,0-14.9,0-22.3,0c-7.5,0-15,0-22.5,0c-14.4,0-28.9,0-43.3,0c-14,0-28.1-0.1-42.1,0
						c-4.4,0-8.5,1.1-11.6,4.4c-2.8,3-5.2,6.1-5.3,10.5c-0.1,1.5,0,3,0,4.5c0,2.7,0,5.4-0.2,8c-0.2,2.8-0.2,5.6,0.1,8.4
						c0.3,2.5,0.2,5.1,0,7.7c-0.2,2.6-0.2,6.9,0,9.5c0.2,2.7,0.2,5.5-0.1,8.2c-0.3,2.9-0.3,5.8,0,8.7c0.3,2.9,0.3,5.8,0,8.7
						c-0.3,3-0.2,6,0,9c0.2,2.8,0.2,5.5,0,8.3c-0.3,2.9-0.2,5.8,0,8.7c0.3,3.1,0.3,6.1,0,9.2c-0.3,2.7-0.2,5.4,0,8.2
						c0.3,3,0.3,6,0,9c-0.5,5,0.8,10-0.3,15c-1.1,5.2-1.5,10.8,0.3,15.9c0.4,1.1,0.2,2.3,0.1,3.5c-0.3,3.3-0.4,6.6,0.1,9.9
						c0.1,0.9,0.5,1.3,1.4,1.3c4.6-0.1,9.2,0.9,13.9,0.1c2.7-0.4,5.5-0.3,8.2,0c3.2,0.4,6.5,0.3,9.7,0c2.5-0.3,5.1-0.2,7.7,0
						c2.8,0.3,5.5,0.4,8.3,0.1c3.2-0.4,6.3-0.4,9.5-0.1c2.9,0.2,5.7,0.3,8.6,0c3-0.3,6-0.3,9,0c2.9,0.3,5.9,0.3,8.8,0
						c2.8-0.2,5.6-0.2,8.4,0c2.8,0.3,5.7,0.3,8.5,0c3-0.3,5.9-0.3,8.9,0c2.9,0.3,5.8,0.3,8.7,0c2.9-0.3,5.8-0.3,8.7,0
						c2.9,0.3,5.8,0.3,8.7,0c3-0.3,5.9-0.3,8.9,0c2.9,0.3,5.9,0.3,8.8,0c3.1-0.3,6.1-0.2,9.2,0c2.7,0.3,5.4,0.2,8.2-0.1
						c2.9-0.3,5.8-0.3,8.7,0c2.7,0.2,5.5,0.3,8.2,0c3-0.3,6-0.3,9,0c2.9,0.3,5.8,0.3,8.6,0c3.1-0.3,6.1-0.3,9.2,0
						c2.7,0.3,5.5,0.2,8.2,0c3.2-0.3,6.4-0.3,9.5,0c3,0.2,6.1,0.3,9.1,0c2.9-0.3,5.7-0.3,8.6,0c3,0.3,6,0.2,9,0
						c2.8-0.2,5.6-0.3,8.4,0c2.9,0.3,5.7,0.3,8.5,0c2.7-0.3,5.4-0.3,8-0.1c2,0.2,3.9,0.1,5.9,0.2c1.3,0,1.9-0.6,1.7-1.8
						c-0.6-4.7,0.2-9.4,0-14.1c-0.3-5.9,0-11.8,0-17.6c0-4.5-0.1-11.9,0-16.4c0-6.7,0-13.4,0-20.1c0-3.4-0.4-6.7-0.1-10
						c0.3-3,0.3-6,0.1-9c-0.2-2.6-0.3-5.1-0.1-7.7c0.2-2.7,0.3-5.5,0.2-8.2c-0.2-4.1,0-8.1,0-12.2c0-7.4-0.2-14.9,0.1-22.3
						c0-0.5,0-0.9,0-1.4c-0.3-3.1-0.3-6.1-0.1-9.2c0.3-5.1,0.3-10.2-1.1-15.1c-1.9-6.9-9.1-11.3-15.4-11.3c-17.1,0-34.1,0-51.2,0
						C426,332.2,400,332.2,374.1,332.2z M373.2,547.3L373.2,547.3c-6,0-12,0-18,0c-20.3,0-40.5,0-60.8,0c-20.4,0-40.7,0-61.1,0
						c-11.2,0-22.5,0-33.7,0c-1.6,0-2.1,0.6-1.8,2.4c0.2,1.1,0.2,2.2,0.2,3.3c-0.1,2.7,1,5,2.7,7c2.7,3.3,6.5,4.6,10.7,4.7
						c2.6,0,5.2-0.2,7.9-0.2c3.7,0,7.4,0.2,11.1,0.2c3,0,5.9-0.4,8.9-0.3c2.9,0.2,5.8,0.4,8.7,0.3c2.9-0.1,5.8-0.5,8.7-0.3
						c2.9,0.2,5.7,0.4,8.5,0.3s5.7-0.4,8.5-0.3c2.7,0.1,5.5,0.4,8.2,0.3c3.1-0.1,6.1-0.2,9.2-0.3c2.9,0,5.8,0.4,8.7,0.3
						c2.7-0.1,5.5-0.3,8.2-0.3c2.4,0,4.7,0.3,7.1,0.2c6,0,11.9-0.3,17.9,0c2.9,0.1,5.8-0.2,8.7-0.2c3,0,6,0.3,9,0.2
						c5.6-0.2,11.2-0.3,16.9,0c3.3,0.2,6.6-0.2,10-0.2c3.2,0,6.4,0.2,9.5,0.2c3,0,5.9-0.2,8.9-0.2c2.9,0,5.8,0.4,8.7,0.3
						c2.9-0.1,5.8-0.5,8.7-0.3c2.9,0.2,5.8,0.4,8.7,0.3c3-0.1,5.9-0.5,8.9-0.3c3.3,0.2,6.6,0.5,9.9,0.2c2.7-0.2,5.4-0.3,8.1-0.1
						c2.8,0.2,5.6,0.2,8.5,0.2c3.1,0,6.1-0.5,9.2-0.3c3.6,0.2,7.3,0.5,10.9,0.2c2.2-0.2,4.4-0.3,6.6-0.2c3,0.2,6,0.4,9.1,0.3
						c3.1-0.2,6.3-0.5,9.4-0.2c2.4,0.2,4.9,0.3,7.3,0.2c4.9-0.3,9.7-0.2,14.6,0c4.1,0.1,8.2-0.2,12.2-0.3c1.8,0,3.4-0.8,4.9-1.6
						c4.8-2.9,6.7-7.4,6.8-12.8c0-2.7,0-2.7-2.7-2.7c-16.7,0-33.3,0-50,0c-20.7,0-41.4,0-62.1,0
						C413.6,547.3,393.4,547.3,373.2,547.3z"/>
					<path class="st4" d="M373,501.8c-18.7,0-37.4,0-56.1,0c-24.2,0-48.4,0-72.5,0c-1.3,0-2.7,0-4,0c-1.8,0-2.4-0.7-2.1-2.4
						c0.6-3.3,0.8-6.7,0.3-10c-0.4-2.8-0.5-5.6-0.2-8.3c0.3-2.7,0.3-5.5,0.3-8.2c0-1.8-0.5-3.6-0.5-5.5c-0.1-2.9,0.8-5.7,0.6-8.6
						c-0.2-3.3-0.4-6.6-0.4-9.9c0-1.8,0.3-3.7,0.4-5.5c0.3-4.4-0.8-8.7-0.4-13c0.3-3,0.5-5.9,0.4-8.8c-0.1-2.4-0.3-4.8-0.5-7.1
						c-0.2-2.7,0.7-5.3,0.5-8c-0.3-3.2-0.2-6.4-0.5-9.6c-0.2-1.8,0.4-3.5,0.6-5.3c0.3-4.4-0.7-8.7-0.6-13c0.1-1.6,0.5-3.2,0.6-4.8
						c0.2-4.5-1-8.9-0.4-13.3c0.3-2.4,0.4-4.9,0.4-7.3c0-1.7-0.2-3.3-0.3-5c0-1.4,0.6-2.3,2.1-2.1c5.6,0.8,11.3-0.3,16.9,0
						c4.1,0.3,8.2,0.3,12.4,0c2.5-0.2,5.1,0,7.7,0.2c2.9,0.2,5.8,0.2,8.7-0.1c2.7-0.3,5.5-0.2,8.2,0c3,0.3,5.9,0.2,8.9,0
						c2.8-0.2,5.6-0.2,8.4,0c3,0.2,5.9,0.2,8.9,0c2.8-0.2,5.6-0.2,8.4,0c3,0.3,5.9,0.3,8.9,0c2.9-0.2,5.7-0.3,8.5,0
						c2.9,0.3,5.7,0.3,8.5,0c3-0.2,6-0.2,9,0c2.9,0.2,5.8,0.2,8.7,0c3-0.2,6-0.2,9,0c2.8,0.2,5.7,0.2,8.5,0s5.7-0.2,8.5,0
						c3,0.2,5.9,0.2,8.9,0c2.9-0.2,5.7-0.2,8.5,0c2.9,0.2,5.8,0.2,8.7,0c2.8-0.2,5.6-0.3,8.4,0c2.9,0.3,5.7,0.3,8.5,0.1
						c3.2-0.2,6.4-0.2,9.5,0c3.3,0.2,6.6,0.2,9.9-0.1c2.6-0.2,5.2-0.2,7.9,0c3.1,0.3,6.2,0.2,9.4,0c3.4-0.3,6.8,0,10.2,0.1
						c4.4,0.1,8.7-0.2,13.1-0.2c1.5,0,3,0.2,4.5,0.3c1,0.1,1.4,0.6,1.4,1.6c0,1.3,0,2.7,0,4c0,37.5,0,75,0,112.5
						c0,11.6,0,23.2,0,34.8c0,2.6-0.1,2.7-2.6,2.7c-21.2,0-42.4,0-63.6,0c-21.9,0-43.9,0-65.8,0C374.8,501.8,374,501.8,373,501.8
						C373,501.8,373,501.8,373,501.8z"/>
					<path class="st4" d="M378.1,339.5c0,2.6-2.6,5.5-4.8,5.4c-2.8-0.1-5.7-2.9-5.7-5.5c0-2.3,2.6-4.9,4.9-4.9
						C375.6,334.6,378.2,336.8,378.1,339.5z"/>
				</g>
			</g>
		</g>
	</g>
</g>
<g id="Layer_2_1_">
</g>
<g>
	<path class="st5" d="M806.5,238.8c-3.1,2.6-7,3.5-10.6,4.8c-10.3,3.8-20.8,6.8-31.6,8.4c-10.3,1.6-20.6,2.7-31,2
		c-17.1-1.1-33.6-4.9-49.5-11.4c-7.1-2.9-14.1-6-20.8-9.9c-1.1-0.6-2.2-1.4-3.1-2.2c-1.4-1.2-1.1-2.5,0.6-3.3
		c3.3-1.6,7-2.3,10.5-3.2c6.9-1.8,13.8-3.3,20.8-4.3c0.9-0.1,1.8-0.1,2.6-0.2c3.4-0.5,6.2-2,8.2-4.9c6.7-9.5,16.2-13.2,27.4-13.8
		c6.3-0.3,12.5,0.3,18.3,3c6.4,3,12,7,15.7,13.3c1.5,2.6,1.1,3.9-1.5,5.1c-4,1.7-8.1,2.8-12.5,3.2c-5.2,0.6-10.5,0.6-15.8,0.4
		c-8.4-0.4-16.4-2.3-24.2-5.5c-1.2-0.5-2.4-0.9-3.6-1.1c-0.6-0.1-1.2,0-1.4,0.6c-0.3,0.7,0.2,1,0.7,1.4c1.4,1,3,1.7,4.7,2.3
		c7.7,2.8,15.5,4.7,23.7,5.4c9.5,0.8,18.8-0.1,27.8-3.4c0.3-0.1,0.6-0.2,0.9-0.3c3.3-1.9,6.5-1.8,10.1-0.8
		c10.1,2.9,20.1,6.2,29.7,10.6c1.4,0.6,2.7,1.4,3.8,2.4C806.5,237.9,806.5,238.4,806.5,238.8z M745.7,248.4
		c6.9,0.1,13.7,0.1,20.6-0.9c9.6-1.4,18.9-3.7,28.1-6.8c1.2-0.4,2.1-1.1,3.1-1.9c0.3-0.2,0.4-0.5,0.4-0.8c-0.1-0.5-0.5-0.6-0.9-0.6
		c-1.2-0.2-2.2,0.2-3.3,0.5c-15.9,5.8-32.3,7.9-49.1,8c-1.7,0-3.3-0.3-5-0.3c-5.3,0-10.5-0.5-15.8-1.2c-11.7-1.5-23-4.2-34.2-7.9
		c-5.8-1.9-11.4-4.3-17-6.4c-0.8-0.3-1.6-0.6-2.5-0.5c-0.8,0.2-0.9,0.7-0.6,1.2s0.9,0.9,1.5,1.2c1.8,0.9,3.5,1.9,5.4,2.6
		c9.8,4,19.8,7.3,30.1,9.6c9.8,2.2,19.8,3.8,29.8,4C739.3,248.5,742.5,248.4,745.7,248.4z M716.8,214.3c-0.1,0,0.2,0,0.5-0.1
		c3.1-0.7,5.4-2.6,7.4-4.9c0.9-1,0.7-2.2,0-3.3c-0.7-1.1-2-1.6-3.3-1.2c-2.8,0.8-5.4,1.8-7.8,3.6c-2.4,1.8-2.1,4.3,0.7,5.5
		C715,214.2,715.7,214.4,716.8,214.3z M786,236.9c0-1-0.9-1.2-1.6-1.4c-5.3-2.2-10.6-4.4-15.9-6.5c-0.8-0.3-1.9-1.2-2.5,0
		c-0.6,1.5,1,1.6,1.8,1.9c5.2,2.2,10.5,4.3,15.7,6.5c0.5,0.2,1,0.5,1.6,0.5C785.6,237.8,785.9,237.5,786,236.9z M790.7,234.6
		c0-0.8-0.7-0.9-1.3-1.2c-5.6-2.2-11.1-4.4-16.7-6.6c-0.7-0.3-1.6-0.8-2,0.2c-0.5,1.1,0.5,1.3,1.2,1.7c0.1,0.1,0.3,0.1,0.5,0.2
		c5.3,2.1,10.7,4.3,16,6.4c0.4,0.2,0.9,0.4,1.4,0.4C790.4,235.7,790.7,235.3,790.7,234.6z M770.4,240.2c-0.1-0.9-0.8-1.1-1.4-1.5
		c-3.5-2.1-7.1-4.3-10.7-6.4c-0.3-0.2-0.7-0.4-1-0.6c-0.5-0.3-1.1-0.3-1.5,0.2c-0.4,0.6-0.1,1.1,0.4,1.5c0.3,0.2,0.7,0.4,1,0.6
		c3.6,2.1,7.1,4.3,10.7,6.4c0.4,0.2,0.8,0.5,1.3,0.7C769.8,241.3,770.2,240.9,770.4,240.2z"/>
	<path class="st5" d="M550.1,19.6c0.5-0.1,1,0.5,1.3,0.1c2.1-2.5,5-3.4,7.9-4.5c1.3,0,2.6,0,3.8,0c0.2,0.3,0.5,0.4,0.8,0.5
		c6,1.4,9.5,5.2,10.7,11.2c0.2,1,0.5,1.5,1.5,1.9c6.2,2.5,8.3,11.1,2.9,16.2c0-5-2-8.8-6.5-11c-1-0.5-1-1.3-1.2-2.1
		c-2.3-9.8-13.1-14.3-21.4-9.9c-0.4,0.2-0.8,0.7-1.4,0.3C548.8,21.2,550.1,20.9,550.1,19.6z M571.7,32.6c1.8-0.7,2.1-2,2.8-3
		c0.1-0.2,0.1-0.5-0.1-0.6c-0.2-0.1-0.5-0.1-0.6,0.1C573,30.1,572.2,31,571.7,32.6z"/>
	<path class="st5" d="M18.5,506.6c0.3,0.5,0.1,1.1,0,1.6c-1.9,9.3,1.3,17,7.8,23.5c4.2,4.2,9.1,7.3,14.4,9.8
		c10.8,5.2,22.3,8.1,34.1,10.1c4.5,0.8,9,1.4,13.5,2.1c-0.5,15.4,6.6,27,17.8,36.6c9.5,8.2,20.6,13.6,32.3,17.9
		c12.4,4.5,25.3,7.4,38.3,9.3c7.7,1.1,15.4,2,23.1,2.3c1.2,0.1,1.8,0.5,2.2,1.7c5.3,17.6,16,31.5,29.6,43.4
		c15,13.1,32.2,22.5,50.6,29.7c17,6.7,34.6,11.2,52.7,14c10.8,1.7,21.7,2.8,32.6,3.4c11,0.6,22.1,0.7,33.1,0.2
		c24.4-1.1,48.3-5,71.5-12.3c7.5-2.4,14.8-5.1,22-8.3c1.5-0.7,2.6-0.5,4,0.1c25.4,11.1,51.6,19.1,78.8,24.2
		c11.5,2.2,23.2,3.8,34.9,4.8c12.7,1.1,25.4,1.6,38.1,1.2c21-0.7,41.7-2.9,62-8.9c13.6-4,26.4-9.6,37.8-18.2
		c7.5-5.6,13.9-12.3,18.6-20.5c0.2-0.3,0.5-0.6,0.8-0.9c0.4,0.5,0.4,1,0.4,1.6c0,3.7,0.2,7.4,0,11c-0.3,4.9-1,9.7-2.5,14.3
		c-3,9.3-8.3,17.2-15.3,24c-8.1,7.9-17.7,13.6-28,18.1c-12.8,5.5-26.2,9-40,11.2c-9.2,1.5-18.5,2.4-27.8,3
		c-11.3,0.7-22.7,0.6-34,0.2c-9.6-0.4-19.1-1.4-28.6-2.6c-18.1-2.4-35.9-6.1-53.4-11.2C525.2,739,511,734,497.1,728
		c-1.6-0.7-3.2-2-4.9-1.8c-1.6,0.1-3.1,1.2-4.6,1.8c-14.2,6.1-28.9,10.5-44,13.8c-7.2,1.5-14.4,2.8-21.7,3.7
		c-5.8,0.7-11.6,1.3-17.4,1.7c-10.1,0.7-20.3,1.1-30.4,0.8c-6.9-0.2-13.9-0.5-20.8-1.2c-6.9-0.7-13.8-1.4-20.7-2.5
		c-12.3-1.9-24.5-4.6-36.4-8.2c-13.6-4.1-26.6-9.4-39.1-16.2c-13.1-7.1-25.2-15.8-35.5-26.7c-8.8-9.3-15.7-19.8-19.8-32
		c-0.5-1.4-0.9-2.9-1.3-4.4c-0.2-0.9-0.6-1.3-1.6-1.4c-4.5-0.3-8.9-0.6-13.4-1c-6.3-0.6-12.5-1.5-18.7-2.6
		c-8.9-1.6-17.7-3.6-26.2-6.4c-12.4-4-24.2-9.3-34.4-17.5c-7.1-5.6-12.9-12.3-16.2-21c-1.5-4-2.4-8.1-2.3-12.4c0-1,0-1.9,0-2.9
		c0-2.1,0.3-2.3-2.2-2.6c-12.9-1.5-25.6-3.7-37.8-8c-7-2.5-13.7-5.5-19.5-10.1c-4.8-3.8-8.8-8.4-10.2-14.6c-0.4-1.7-0.7-3.5-0.7-5.2
		c0-12.4,0-24.8,0-37.2C17.2,511.4,17.4,508.9,18.5,506.6z M76.4,569.7c0-3.6,0-7.2,0-10.8c0-0.9,0.3-2-1-2.4
		c-0.8-0.2-1.2,0.5-1.2,2.4c0,7.1,0,14.2,0,21.3c0,0.4,0,0.8,0,1.2c0,0.6,0.3,1.1,0.9,1.2c0.8,0.1,1.1-0.5,1.2-1.2c0-0.5,0-1,0-1.4
		C76.4,576.6,76.4,573.2,76.4,569.7z M467.4,717.5c0,3.4,0,6.9,0,10.3c0,0.6,0,1.1,0,1.7c0.1,0.6,0.4,1.1,1,1.1c0.5,0,0.9-0.4,1-0.9
		c0.1-0.4,0.1-0.8,0.1-1.2c0-7.3,0-14.7,0-22c0-0.9,0.1-2-1.1-2c-1.2,0-1,1.2-1,2.1C467.4,710.2,467.4,713.9,467.4,717.5z
		 M198.3,638.8c0-3.4,0-6.9,0-10.3c0-0.6,0-1.1,0-1.7c-0.1-0.6-0.4-1.1-1.1-1c-0.5,0-0.8,0.5-0.9,1c0,0.4,0,0.8,0,1.2
		c0,7.3,0,14.5,0,21.8c0,0.8-0.3,2,1,2.1c1.3,0,1-1.2,1-2C198.3,646.2,198.3,642.5,198.3,638.8z M189.6,637.1c0-3.5,0-7,0-10.5
		c0-1.9-0.4-2.6-1.2-2.4c-1.4,0.3-0.9,1.5-0.9,2.4c0,7.1,0,14.2,0,21.3c0,0.4,0,0.8,0,1.2c0.1,0.7,0.4,1.3,1.2,1.2
		c0.6-0.1,0.9-0.6,0.9-1.2c0-0.5,0-1,0-1.4C189.6,644.2,189.6,640.6,189.6,637.1z M85,571.3c0-2.2,0-4.5,0-6.7c0-1.7,0-3.4,0-5
		c0-0.7-0.2-1.3-1-1.3c-0.8,0-1.1,0.6-1.1,1.3c0,0.2,0,0.5,0,0.7c0,7.3,0,14.5,0,21.8c0,0.9-0.2,2.2,1.2,2.1
		c1.2-0.1,0.9-1.3,0.9-2.1C85,578.5,85,574.9,85,571.3z M723.9,725.2c0,3.8,0,7.5,0,11.2c0,0.9-0.5,2.2,0.9,2.3c1.4,0.1,1-1.3,1-2.2
		c0-7.7,0-15.3,0-23c0-0.5,0-1-0.1-1.4c-0.1-0.6-0.6-0.7-1.1-0.7c-0.4,0-0.7,0.3-0.8,0.8c0,0.6,0,1.1,0,1.7
		C723.9,717.7,723.9,721.5,723.9,725.2z M743.7,714.2c0,2.7,0,5.4,0,8.2c0,1-0.4,2.4,1.2,2.4c1.4,0,1-1.4,1-2.3c0-5.5,0-11,0-16.5
		c0-0.5,0-1-0.1-1.4c-0.1-0.5-0.4-0.9-1-0.9c-0.5,0-0.9,0.3-1,0.8c-0.1,0.5-0.1,1.1-0.1,1.7C743.7,708.7,743.7,711.4,743.7,714.2z
		 M489.4,710.1c0-3,0-5.9,0-8.9c0-1,0-2.1,0-3.1c0-0.4-0.2-0.8-0.7-0.9c-0.5-0.1-1,0.2-1.1,0.7c-0.1,0.4-0.2,0.9-0.2,1.4
		c0,7.3,0,14.7,0,22c0,0.3,0,0.6,0,1c0.1,0.6,0.5,1.1,1.1,1c0.5,0,0.8-0.5,0.8-1c0-0.6,0-1.1,0-1.7
		C489.4,717.2,489.4,713.7,489.4,710.1z M53.1,564.5c0-3.5,0-7,0-10.5c0-0.6,0-1.1,0-1.7c0-0.5-0.3-0.9-0.9-0.9
		c-0.5,0-0.9,0.3-1,0.9c-0.1,0.5-0.1,1.1-0.1,1.7c0,7,0,14,0,21c0,0.6,0,1.1,0.1,1.7c0.1,0.5,0.5,0.8,1,0.8c0.4,0,0.8-0.3,0.8-0.7
		c0.1-0.5,0.1-1.1,0.1-1.7C53.1,571.5,53.1,568,53.1,564.5z M66,568.3L66,568.3c0-3.9,0-7.8,0-11.7c0-0.7-0.1-1.3-1-1.4
		c-0.9-0.1-1,0.6-1,1.3c0,0.4,0,0.8,0,1.2c0,7,0,14,0,21.1c0,0.5,0,1,0,1.4c0,0.7,0.4,1.1,1,1c0.5,0,0.9-0.3,0.9-0.9
		c0-0.6,0-1.1,0-1.7C66,575.2,66,571.7,66,568.3z M449.5,722.7c0-3.5,0-7,0-10.5c0-0.6,0-1.1-0.1-1.7c-0.1-0.5-0.4-0.8-1-0.8
		c-0.4,0-0.8,0.3-0.8,0.7c-0.1,0.5-0.1,1.1-0.1,1.7c0,7,0,14.1,0,21.1c0,0.5,0,1,0,1.4c0,0.7,0.4,1.1,1.1,1c0.6,0,0.8-0.4,0.9-1
		c0-0.6,0-1.1,0-1.7C449.5,729.5,449.5,726.1,449.5,722.7z M478.8,715.2c0-3.7,0-7.5,0-11.2c0-0.8,0.2-1.8-0.9-1.8c-1.1,0-1,1-1,1.8
		c0,0.2,0,0.5,0,0.7c0,7,0,14,0,21c0,0.5,0,1,0,1.4c0.1,0.6,0.4,1.1,1.1,1c0.5,0,0.8-0.5,0.8-1c0-0.6,0-1.1,0-1.7
		C478.8,722.1,478.8,718.7,478.8,715.2z M485.4,713.2c0-3.6,0-7.2,0-10.8c0-0.9,0.4-2.2-1.1-2.2c-1.2,0.1-0.9,1.3-0.9,2.1
		c0,7.2,0,14.5,0,21.8c0,0.5,0,1,0.1,1.4c0.1,0.4,0.4,0.7,0.9,0.7c0.5,0,0.8-0.3,0.9-0.7c0.1-0.5,0.1-1.1,0.1-1.7
		C485.4,720.4,485.4,716.8,485.4,713.2z M195.1,638.1c0-3.6,0-7.2,0-10.8c0-0.8,0.5-2-0.9-2.1c-1.5-0.1-1.1,1.3-1.1,2.1
		c0,7.2,0,14.4,0,21.6c0,0.5,0,1,0.1,1.4c0.1,0.5,0.5,0.8,1,0.8c0.4,0,0.8-0.3,0.8-0.8c0.1-0.5,0.1-1.1,0.1-1.7
		C195.1,645.1,195.1,641.6,195.1,638.1z M79.9,570.5c0,3.5,0,7,0,10.5c0,0.6,0,1.1,0.1,1.7c0,0.5,0.3,0.7,0.8,0.8
		c0.5,0,1-0.2,1.1-0.7c0.1-0.5,0.1-1.1,0.1-1.7c0-7,0-14.1,0-21.1c0-0.6,0-1.1-0.1-1.7c-0.1-0.6-0.5-0.8-1-0.8
		c-0.4,0-0.8,0.3-0.8,0.7c-0.1,0.5-0.1,1.1-0.1,1.7C79.8,563.4,79.9,566.9,79.9,570.5z M179.3,635.8c0-3.5,0-7,0-10.5
		c0-0.6,0-1.1-0.1-1.7c0-0.5-0.3-0.7-0.8-0.8c-0.5-0.1-1,0.2-1.1,0.7c-0.1,0.5-0.1,1-0.1,1.4c0,7.2,0,14.4,0,21.6c0,0.5,0,1,0.1,1.4
		c0.1,0.6,0.5,0.8,1,0.8c0.4,0,0.8-0.2,0.8-0.7c0.1-0.5,0.1-1.1,0.1-1.7C179.3,642.8,179.3,639.3,179.3,635.8z M166.4,632
		c0-3.6,0-7.2,0-10.8c0-0.8,0.5-2.2-1-2.2c-1.4,0-1,1.4-1,2.3c0,7.1,0,14.2,0,21.3c0,0.5,0,1.1,0.1,1.7c0.1,0.5,0.6,0.8,1.1,0.7
		c0.4,0,0.7-0.4,0.7-0.8c0-0.6,0-1.1,0-1.7C166.4,639,166.4,635.5,166.4,632z M759.9,698.3c0,2.3,0,4.6,0,6.9c0,0.8-0.5,2.2,1,2.2
		c1.3,0,0.9-1.3,0.9-2.1c0-4.7,0-9.4,0-14.1c0-0.5,0.1-1.1-0.2-1.6c-0.2-0.4-0.6-0.6-1-0.5c-0.3,0.1-0.6,0.3-0.7,0.6
		c-0.1,0.5-0.1,1.1-0.1,1.7C759.9,693.6,759.9,696,759.9,698.3z M755.2,705.8c0-2.4,0-4.8,0-7.2c0-0.9,0.4-2.2-1-2.2
		c-1.2,0-0.9,1.3-0.9,2.1c0,4.7,0,9.4,0,14.1c0,0.4,0,0.8,0,1.2c0.1,0.5,0.4,0.9,0.9,0.9c0.6,0,0.9-0.3,1-0.8c0.1-0.5,0.1-1,0.1-1.4
		C755.2,710.2,755.2,708,755.2,705.8z M765.8,691.4c0-2,0-4,0-6c0-0.7,0-1.4-1-1.3c-0.8,0-1,0.6-1,1.3c0,4,0,8,0,12
		c0,0.8,0.2,1.5,1.1,1.5c0.8-0.1,0.9-0.8,0.9-1.5C765.8,695.4,765.8,693.4,765.8,691.4z"/>
	<path class="st5" d="M527.2,395.3c-1.8,0.1-3.7,0.2-5.5,0.3c-1,0-1.2,0.5-1.2,1.4c0,2.8,0.1,5.6,0.1,8.4c-0.3,9.2,0,18.4,0,27.6
		c0,9.9,0.1,19.8,0.1,29.8c0,13.4-0.1,26.7-0.1,40.1c0,1.4,0.1,2.9,0.1,4.3c0,1.9-0.5,2.4-2.4,2.2c-1.4-0.1-2.7-0.1-4.1-0.2
		c-3.7-0.2-7.3-0.2-11,0.2c-1.4,0.2-2.9,0.1-4.3,0c-4.4-0.4-8.8-0.4-13.2,0c-1.4,0.1-2.7,0.1-4.1,0c-4.5-0.5-9.1-0.4-13.6,0
		c-1.4,0.1-2.9-0.1-4.3-0.1c-4.5-0.2-9.1-0.4-13.6,0.1c-1.6,0.2-3.2,0.2-4.8,0c-4.2-0.5-8.5-0.4-12.7,0c-1.5,0.1-3,0.2-4.5,0
		c-4.1-0.4-8.3-0.4-12.4,0c-1.5,0.2-3,0.1-4.5,0c-4.4-0.4-8.8-0.4-13.2,0c-1.6,0.2-3.2,0.1-4.8,0c-4.1-0.4-8.1-0.4-12.2,0
		c-1.6,0.1-3.2,0.2-4.8,0c-4.5-0.4-8.9-0.4-13.4,0c-1.3,0.1-2.7,0.1-4.1,0c-4.4-0.4-8.8-0.4-13.2,0c-1.4,0.1-2.9,0.2-4.3,0
		c-4.4-0.4-8.8-0.4-13.2,0c-1.4,0.1-2.7,0.2-4.1,0c-4.5-0.5-8.9-0.4-13.4,0c-1.5,0.1-3,0.1-4.5-0.1c-3.8-0.4-7.5-0.4-11.3,0
		c-2.2,0.2-4.3,0.2-6.5,0c-4-0.3-8-0.4-12,0.1c-1.8,0.2-3.7,0.1-5.5,0c-3.9-0.4-7.8-0.4-11.7,0c-1.8,0.2-3.5,0.2-5.3,0
		c-4.1-0.4-8.1-0.5-12.2,0c-1.5,0.2-3.1,0.2-4.6,0c-2.1-0.2-4.1-0.3-6.2-0.3c-2.2-0.1-2.5-0.2-2.7-2.4c-0.3-2.9-0.3-5.9,0-8.9
		c0.1-1.1,0.3-2.2-0.1-3.3c-1.7-5.2-1.5-10.4-0.4-15.6c0.6-2.8,0.7-5.5,0.4-8.3c-0.2-2.5-0.3-5.1,0-7.7c0.3-2.6,0.3-5.3,0-7.9
		c-0.3-3.2-0.3-6.4,0-9.6c0.3-2.3,0.3-4.6,0.1-6.9c-0.4-3.8-0.4-7.5,0-11.2c0.2-2,0.2-4,0-6c-0.4-3.8-0.4-7.5,0-11.2
		c0.2-1.7,0.2-3.4,0.1-5c-0.2-2.6-0.4-5.3-0.4-7.9c0-1.7-0.1-1.7-1.8-1.6c-1.7,0.1-3.3,0.2-5,0.3c-3.2-0.4-6.5-0.6-9.7-1.5
		c-1.9-0.5-3.8-1.3-5.5-2.4c-2.6-1.6-4.3-3.8-4.3-7c0-6.8,0-13.6,0-20.4c0-1.4,0.7-1.9,1.9-2.4c5.2-1.9,10.3-3.8,15.5-5.7
		c0.7-0.3,1.4-0.7,2.2-1c1.1-0.1,2.1-0.6,3.2-1c4.7-1.9,4.1-0.5,3.8-5.4c-0.4-6.2,6-15.2,13.6-16c1.4-0.1,2.9-0.2,4.3-0.2
		c83.9,0,167.9,0,251.8,0c2.4,0,4.8,0,7.2,0.1c6.7,0.2,13,5.3,14.7,11.8c0.8,2.9,1,5.8,1.1,8.8c0,0.7,0,1.5,0.9,1.8
		c1.9,0.6,3.6,1.7,5.7,1.8c1.5,1.3,3.5,1.6,5.2,2.3c2.7,1.1,5.5,2.1,8.3,3.1c1,0.3,1.3,0.9,1.3,1.9c0,7.1,0,14.2,0,21.4
		c0,2.1-1,3.8-2.6,5.2c-1.6,1.3-3.5,2.3-5.5,2.9C531.7,394.5,529.5,395.1,527.2,395.3z M374.2,502.3c43.4,0,86.9,0,130.3,0
		c0.6,0,1.3,0,1.9,0c2,0,2.2-0.2,2.3-2.2c0-0.6,0-1.1,0-1.7c0-21.2,0-42.4,0-63.6c0-3,0.1-6.1,0.2-9.1c0.1-10.2,0-20.3,0.1-30.5
		c0-1-0.2-1.6-1.2-2c-1.5-0.5-3-1.2-4.2-2.3c-0.7-0.6-1.2-0.4-1.9,0.1c-2.8,2.1-6.1,3.1-9.5,3.8c-4.4,0.8-8.9,1-13.4,0.5
		c-4.5-0.5-8.8-1.5-12.6-4.2c-0.8-0.6-1.3-0.5-2.1,0.1c-2.1,1.6-4.6,2.5-7.2,3.2c-4.2,1.1-8.5,1.5-12.8,1.2
		c-5.5-0.4-11-1.2-15.6-4.7c-0.7-0.6-1.1-0.2-1.6,0.2c-2.3,1.7-4.9,2.7-7.6,3.4c-5.5,1.4-11.1,1.5-16.6,0.7c-4-0.6-8-1.6-11.3-4.2
		c-0.8-0.6-1.3-0.3-1.9,0.2c-2.2,1.7-4.8,2.6-7.4,3.3c-4,1-8,1.4-12.1,1.2c-5.7-0.3-11.3-1.1-16.1-4.7c-0.7-0.5-1.1-0.2-1.7,0.2
		c-2,1.6-4.4,2.5-6.9,3.2c-6,1.6-12,1.7-18.1,0.8c-3.8-0.6-7.5-1.6-10.6-4.1c-0.8-0.6-1.3-0.3-1.9,0.2c-1.7,1.4-3.7,2.1-5.8,2.8
		c-4.5,1.4-9.1,1.9-13.7,1.6c-5.7-0.3-11.3-1.1-16.1-4.7c-0.7-0.5-1.1-0.2-1.7,0.2c-1.8,1.4-3.8,2.2-6,2.9c-6.1,1.9-12.3,2-18.5,1.1
		c-3.8-0.5-7.5-1.6-10.7-3.9c-1.5-1.1-2.1-0.8-2.5,1.1c-0.7,3.2-0.5,6.5-0.3,9.8c0.2,2.6,0.6,5.3,0.1,7.9c-0.5,2.9-0.4,5.7-0.1,8.6
		c0.3,3.1,0.4,6.2,0,9.3c-0.4,3.6-0.4,7.2,0,10.8c0.3,2.1,0.3,4.2,0.1,6.2c-0.5,3.8-0.4,7.6-0.1,11.5c0.2,2.5,0.3,4.9-0.1,7.4
		c-0.4,2.2-0.4,4.5-0.1,6.7c0.3,1.8,0.3,3.7,0.3,5.5c0,1.6-0.1,3.2-0.3,4.8c-0.3,3.1-0.3,6.2,0.1,9.3c0.4,2.7,0.4,5.4-0.1,8.1
		c-0.6,3.9-0.3,4.3,3.7,4.2c1.2,0,2.4-0.1,3.6-0.1C289.2,502.3,331.7,502.3,374.2,502.3z M468.9,347.9c0.4,1,1.1,1,1.6,1.3
		c9.6,4.6,19.2,9.1,28.8,13.6c1.7,0.8,2.5,1.7,2.5,3.7c-0.2,5.8,0.1,11.5-0.1,17.3c-0.1,3.2,1.2,5.2,3.9,6.5
		c0.9,0.4,1.7,0.8,2.6,1.2c6.7,2.4,13.6,2.4,20.6,1.2c2.7-0.5,5.3-1.3,7.6-2.8c2-1.2,3-2.9,3-5.3c-0.1-6.1,0-12.3,0-18.5
		c0-2.4,0.3-2.1-2.2-3c-13.2-4.9-26.5-9.8-39.8-14.7c-0.8-0.3-1.7-0.5-2.6-0.5C486.2,347.9,477.7,347.9,468.9,347.9z M273.4,348.1
		c-0.3-0.1-0.4-0.2-0.5-0.2c-8.5,0-17,0-25.4,0c-0.9,0-1.7,0.2-2.6,0.5c-13.5,5-27,10-40.4,14.9c-1.2,0.4-1.6,1.1-1.6,2.3
		c0.1,6.5,0.1,13,0,19.4c0,1.7,0.6,2.9,1.8,4c1.7,1.5,3.6,2.3,5.7,2.9c7.2,2.1,14.5,2.1,21.8,0.2c2-0.5,3.9-1.3,5.7-2.5
		c1.6-1.1,2.5-2.5,2.4-4.6c-0.1-6.3,0-12.6-0.1-19c0-1.3,0.3-2.2,1.6-2.8c8.3-3.8,16.5-7.7,24.7-11.7
		C268.8,350.5,271.2,349.6,273.4,348.1z M329,348.2c-0.5-0.2-0.6-0.3-0.7-0.3c-8.5,0-16.9,0-25.4,0c-0.9,0-1.7,0.3-2.4,0.8
		c-7.1,4.7-14.2,9.5-21.4,14.2c-1,0.7-1.5,1.4-1.5,2.7c0.1,6.5,0.1,13,0,19.4c0,1.9,0.8,3.2,2.1,4.3c1.6,1.3,3.6,2.1,5.6,2.7
		c6.2,1.8,12.5,1.9,18.7,0.8c3-0.5,5.9-1.4,8.5-3.2c1.7-1.2,2.6-2.6,2.5-4.8c-0.1-6.4,0-12.8-0.1-19.2c0-1.2,0.3-2.1,1.1-3
		c1.2-1.2,2.3-2.5,3.4-3.7C322.6,355.4,325.8,351.9,329,348.2z M413.2,348.1c0,0.9,0.7,1.2,1.1,1.7c3.8,4.2,7.5,8.5,11.4,12.6
		c1,1,1.3,2,1.3,3.4c-0.1,6.1,0,12.3,0,18.5c0,2.4,1,4.1,2.9,5.4c1.5,1,3.2,1.7,5,2.2c6.4,1.8,12.8,1.9,19.2,0.7
		c2.6-0.5,5.1-1.3,7.4-2.7c2-1.2,3.1-2.8,3-5.3c-0.1-6.2-0.1-12.5,0-18.7c0-1.4-0.4-2.3-1.6-3.1c-7.1-4.6-14.1-9.3-21.1-14.1
		c-1.1-0.7-2.1-1-3.4-1c-7.8,0-15.5,0-23.2,0C414.4,347.9,413.8,347.7,413.2,348.1z M389.6,375.1c0-3.2,0-6.4,0-9.6
		c0-1,0-1.9-0.3-2.9c-1.3-4.4-2.7-8.7-3.9-13.1c-0.4-1.3-0.9-1.8-2.3-1.8c-8.1,0.1-16.1,0.1-24.2,0c-1.4,0-1.9,0.6-2.3,1.8
		c-1.2,4.4-2.6,8.7-3.9,13.1c-0.2,0.7-0.3,1.4-0.3,2.1c0,6.7,0,13.4,0,20.1c0,1.9,0.9,3.4,2.4,4.5c1.6,1.2,3.5,2,5.4,2.5
		c6.3,1.8,12.6,1.9,19,0.8c2.9-0.5,5.7-1.4,8.2-3.1c1.6-1.1,2.5-2.5,2.4-4.6C389.5,381.7,389.6,378.4,389.6,375.1z M379.2,339.9
		c-0.1-2.6-2.7-4.9-5.6-4.8c-2.6,0.1-5.1,2.7-5,5.1c0.1,2.6,3.2,5.4,5.9,5.2C376.8,345.3,379.2,342.4,379.2,339.9z M499,346.4
		c-0.1,0.1-0.1,0.3-0.2,0.5c3.2,1.2,6.5,2.4,9.7,3.6c0.3-3.5,0.3-3.5-2.9-3.9C503.5,346.3,501.3,346.5,499,346.4z M239.3,348.5
		c1.1,0.1,1.7-0.3,2.4-0.6c0.7-0.2,1.5-0.4,2.2-1C240.6,346,240.2,346.2,239.3,348.5z"/>
	<path class="st5" d="M143.4,434c-0.4-0.5-1-0.4-1.6-0.4c-2.4-0.1-2.4,0-2.4,2.3c0,10.9,0,21.9,0,32.8c0,0.5,0,1,0,1.4
		c0,1.8,0,1.8-1.9,1.8c-3,0-6.1,0-9.1,0c-1.2,0-1.8-0.3-1.7-1.6c0.1-1.1,0-2.2,0-3.4c0-10.1,0-20.1,0-30.2c0-0.5,0-1,0-1.4
		c-0.1-1.8-0.1-1.8-1.9-1.8c-0.7,0-1.4,0-2.2,0c-12.4,0-24.8,0-37.7,0c1.9-2.9,4.2-4.8,5.9-7.7c-3,0-5.5,0-8.1,0
		c-2.5,0-5-0.2-7.9,0.2c2.2,2.6,4.1,4.9,6,7.2c2,2.4,3.9,4.8,5.9,7.2c1.9,2.3,4,4.4,5.8,7.3c-6.6,0-12.8,0-18.9,0
		c-1.6-0.2-3.3-0.2-5.3,0c6.2,7.5,12.2,14.8,18.4,22.3c-25.9,0-51.3,0-77.2,0c6-7.6,12.2-14.7,18.3-22.3c-2.1-0.2-3.7-0.2-5.3,0
		c-5.1,0-10.2,0-15.3,0c-0.1-0.2-0.2-0.3-0.3-0.5c5.5-7.1,11.6-13.9,17.4-21.2c-2.1-0.6-4.1-0.2-6-0.3c-2-0.1-4,0-6,0
		c-2,0-3.9,0-6.5,0c14.5-17.5,28.7-34.7,43-51.9c2,1.5,3.2,3.5,4.7,5.2c10.7,12.8,21.3,25.7,32,38.6c1.7,2.1,3.5,4.1,5.2,6.3
		c0.8,1,1.3,0.8,2-0.1c3.7-4.6,7.6-9.1,11.3-13.7c1-1.2,2.2-2.3,3.1-3.9c-2.3-0.5-4.5-0.2-6.6-0.2c-2.2,0-4.5,0-6.7,0
		c-2.2,0-4.4,0-7.1,0c6.8-8.2,13.2-16,19.9-24.1c-2.6-0.5-4.8-0.2-7-0.3c-2.2,0-4.3,0-6.5,0c-2.2,0-4.4,0-7.2,0
		c16.2-19.5,31.9-38.6,48-57.9c16,19.2,31.8,38.3,48,57.9c-6.6,0-12.7,0-18.7,0c-0.1,0.2-0.2,0.4-0.2,0.5
		c6.5,7.8,12.9,15.7,19.7,23.9c-8.2,0-16,0-24.4,0c7.5,9.4,15,18,22.3,27.1c-1,0.4-1.8,0.2-2.5,0.2c-10.6,0-21.3,0-31.9,0
		C145.3,433.7,144.3,433.5,143.4,434z M132.6,401.9c0.2-0.1,0.4-0.2,0.6-0.4c3.8-4.6,7.6-9.3,11.3-13.9c0.1-0.2,0.3-0.4,0.4-0.6
		c0.3-0.5,0.2-0.9-0.2-1.3c-0.4-0.4-0.9-0.4-1.3,0c-0.4,0.4-0.8,0.8-1.1,1.2c-2.6,3.2-5.2,6.5-7.9,9.7c-0.5,0.6-0.9,1.5-2,1.8
		c-0.6-0.7-1.1-1.4-1.7-2.2c-2.2-3-4.5-6-6.7-9c-0.3-0.5-0.7-0.9-1-1.3c-0.4-0.4-0.9-0.6-1.5-0.1c-0.4,0.4-0.4,0.9-0.2,1.3
		c0.3,0.5,0.6,0.9,0.9,1.4c2.8,3.8,5.6,7.6,8.4,11.3C131.3,400.5,131.7,401.4,132.6,401.9z M47.8,440.8c-1.2-1.7-2.4-3.2-3.5-4.7
		c-1.6-2.2-3.2-4.4-4.9-6.5c-0.3-0.5-0.8-0.8-1.4-0.4c-0.7,0.4-0.6,1-0.2,1.7c0.2,0.3,0.4,0.5,0.6,0.8c2.7,3.6,5.4,7.3,8.1,11
		c0.4,0.5,0.7,1.3,1.5,1.5c0.9-0.7,1.5-1.6,2.2-2.5c2.8-3.5,5.6-6.9,8.5-10.4c0.5-0.6,1-1.2,0.2-1.9c-0.8-0.6-1.3-0.1-1.8,0.5
		c-1,1.2-2,2.5-3,3.7C51.9,435.8,50.2,438.4,47.8,440.8z M148.4,378.3c3.5-4.6,7.1-9.2,10.6-13.8c0.1-0.1,0.2-0.3,0.3-0.4
		c0.3-0.5,0.3-0.9-0.1-1.3c-0.4-0.3-0.9-0.4-1.3,0c-0.5,0.4-0.9,0.9-1.3,1.4c-1.9,2.4-3.7,4.8-5.6,7.2c-0.8,1-1.5,2.3-2.7,3.2
		c-1.9-3.2-3.8-6.4-5.7-9.5c-0.5-0.8-0.9-2.3-2.2-1.5c-1.2,0.7-0.1,1.7,0.3,2.5c2.1,3.6,4.2,7.1,6.4,10.7
		C147.4,377.3,147.5,378,148.4,378.3z M117.9,374.6c3.9-4.5,7.6-8.7,11.2-13c0.6-0.6,1.5-1.4,0.5-2.2c-1-0.7-1.6,0.3-2.1,0.9
		c-2.7,3.1-5.4,6.1-8.1,9.2c-1.5,1.7-1.5,1.7-2.9,0c-2.1-2.5-4.1-5.1-6.2-7.6c-0.4-0.5-0.9-1-1.6-0.5c-0.8,0.5-0.6,1.2-0.1,1.8
		c1,1.2,2,2.5,3,3.7C113.8,369.5,115.8,372,117.9,374.6z M62,416.4c-1.8-3-3.3-5.6-4.9-8.2c-0.3-0.5-0.7-1.1-1.1-1.6
		c-0.3-0.4-0.8-0.5-1.3-0.2c-0.5,0.3-0.6,0.7-0.4,1.2c0.2,0.4,0.4,0.9,0.7,1.3c1.8,3,3.5,5.9,5.3,8.8c0.4,0.7,0.7,1.6,1.7,2.2
		c3.2-4.1,6.3-8.2,9.5-12.3c0.5-0.6,0.9-1.3,0.2-1.9c-0.8-0.7-1.3,0-1.8,0.6c-0.2,0.3-0.5,0.6-0.7,1C66.8,410.1,64.6,413.1,62,416.4
		z M34.7,419.3c-2.1-2.6-4-5-5.9-7.3c-0.4-0.5-0.8-1-1.3-1.4c-0.3-0.3-0.7-0.4-1.1-0.1c-0.5,0.3-0.7,0.7-0.4,1.2
		c0.2,0.5,0.6,0.9,0.9,1.4c2.2,2.7,4.4,5.5,6.6,8.2c0.3,0.4,0.5,1,1.4,1c3.4-3.9,6.8-7.8,10.2-11.8c0.2-0.2,0.3-0.4,0.4-0.6
		c0.2-0.4,0.2-0.8-0.2-1.1c-0.4-0.4-0.8-0.5-1.3-0.2c-0.5,0.4-0.9,0.9-1.3,1.4C40.2,413,37.6,416,34.7,419.3z M117.6,427.4
		c-2.9-2.9-5.7-5.6-8.4-8.2c-0.6-0.6-1.2-1.1-1.8-1.5c-0.4-0.3-0.8-0.1-1.1,0.2c-0.3,0.3-0.4,0.7-0.2,1.1c0.3,0.5,0.7,0.9,1.1,1.3
		c2.4,2.4,4.8,4.7,7.2,7.1c1.1,1.1,2.3,2.1,3.6,3.2c2.7-3.3,5.3-6.5,7.9-9.6c0.2-0.2,0.4-0.5,0.6-0.8c0.2-0.5,0.2-0.9-0.2-1.3
		c-0.5-0.4-0.9-0.3-1.3,0.1c-0.6,0.6-1.1,1.2-1.6,1.8C121.4,422.8,119.6,425,117.6,427.4z M151.9,431.8c2.9-3.8,5.7-7.3,8.4-10.9
		c0.4-0.6,0.9-1.3,0.2-1.9c-0.7-0.6-1.3-0.1-1.8,0.5c-0.3,0.4-0.6,0.8-0.9,1.1c-1.7,2.2-3.3,4.3-5,6.5c-0.6,0.9-1.2,0.9-1.8,0
		c-0.7-1-1.4-1.9-2.2-2.9c-1.4-1.8-2.7-3.5-4.1-5.3c-0.4-0.5-0.9-1-1.6-0.5c-0.6,0.5-0.4,1.1,0,1.7c0.1,0.1,0.2,0.3,0.3,0.4
		C146.1,424.3,148.9,427.9,151.9,431.8z M34.5,467.7c1.2-1.4,2.3-2.8,3.4-4.1c1.3-1.5,2.5-3.1,3.8-4.6c0.5-0.6,1.2-1.4,0.3-2
		c-0.9-0.7-1.4,0.2-2,0.8c-0.2,0.2-0.4,0.5-0.6,0.8c-1.4,1.7-2.8,3.4-4.2,5.2c-0.5,0.7-1,0.9-1.7,0.2c-0.5-0.6-1.2-1.1-1.7-1.7
		c-2-2-4-3.9-6-5.9c-0.5-0.5-1.1-0.8-1.7-0.2c-0.6,0.6-0.4,1.2,0.1,1.7c1.1,1.1,2.3,2.2,3.4,3.3C30,463.3,32.2,465.4,34.5,467.7z
		 M63.2,465.9c2.6-3.4,5-6.5,7.4-9.5c0.5-0.7,1.4-1.5,0.3-2.2c-1-0.7-1.5,0.4-2.1,1c-1.4,1.8-2.7,3.5-4.1,5.3c-1.5,2-1.5,2-3,0.1
		c-1.4-1.8-2.8-3.7-4.2-5.5c-0.3-0.4-0.7-0.9-1.1-1.3c-0.3-0.3-0.7-0.4-1.1-0.1c-0.3,0.2-0.6,0.6-0.5,1c0.1,0.4,0.3,0.8,0.5,1.1
		C57.9,459.1,60.4,462.3,63.2,465.9z"/>
	<path class="st5" d="M374.1,151.9c12.7,0,23.3,4.6,31.8,13.6c6,6.3,9.5,13.9,11,22.5c1,6.2,0.2,12.1-1.6,17.9
		c-1.8,5.6-4,11-6.1,16.4c-3.6,9.2-6.7,18.6-10,27.9c-7.3,20.5-14.5,41-21.7,61.4c-0.4,1-0.7,2-1.4,2.8c-0.9,1-1.9,1-2.9,0.1
		c-0.7-0.7-1.1-1.5-1.4-2.5c-2.9-8.1-5.7-16.3-8.6-24.4c-7.3-20.7-14.6-41.4-22-62.1c-2.1-5.9-4.8-11.7-6.7-17.7
		c-1.5-4.8-3.1-9.6-2.9-14.7c0.7-12.7,5.8-23.2,15.6-31.5c6.3-5.3,13.7-8.4,21.9-9.5C370.8,151.9,372.5,151.9,374.1,151.9z
		 M404.9,196.8c0.5-17-14.3-30.3-29.8-30.6c-16.8-0.3-31.1,13.4-31.2,30.3c-0.1,17,13.6,30.8,30.4,30.8
		C392.5,227.3,405.4,212.2,404.9,196.8z M397.2,237.8c0-0.6-0.2-1-0.8-1.1c-0.5-0.2-1,0.1-1.2,0.6c-0.3,0.6-0.4,1.2-0.6,1.8
		c-6.5,19.4-12.9,38.8-19.4,58.1c-0.2,0.5-0.4,1.1-0.5,1.6c-0.1,0.6-0.1,1.2,0.5,1.4c0.8,0.3,1.2-0.1,1.5-0.8
		c0.1-0.4,0.2-0.8,0.4-1.1c6.5-19.5,13-39.1,19.5-58.6C396.9,239,397.1,238.4,397.2,237.8z M389,246.8c0.1-0.8-0.2-1.2-0.7-1.4
		c-0.5-0.1-0.9,0.1-1.2,0.6c-0.2,0.4-0.4,0.9-0.5,1.4c-4.1,12.4-8.3,24.8-12.4,37.2c-0.3,0.9-1.3,2.1,0.3,2.6c1.3,0.4,1.4-1,1.6-1.9
		c4.1-12.4,8.3-24.8,12.4-37.2C388.8,247.6,388.9,247,389,246.8z"/>
	<path class="st5" d="M227.8,311.2c-2.4-3.4-4.9-6.4-6.8-9.8c-1.9-3.3-4.2-4.2-7.9-4.1c-13.5,0.2-27,0.1-40.5,0.1
		c-7.9,0-13.9-4.9-15.6-12.6c-0.2-0.9-0.2-1.7-0.2-2.6c0-13.1,0-26.2,0-39.3c0-8.4,7.3-15.2,15.1-15.1c20.4,0.1,40.8,0.1,61.1,0
		c7.8,0,15,6.8,14.9,15c-0.1,13.2-0.1,26.4,0,39.6c0.1,6.6-5.1,14.6-14.6,15.1c-1.2,0.1-2.4,0.1-3.6,0c-1.1,0-1.6,0.4-1.5,1.5
		c0,3.5,0,7,0,10.5C228.1,309.9,228.3,310.4,227.8,311.2z M202.4,292.1c4.4,0,8.8,0,13.2,0c5.8,0,11.7,0.1,17.5-0.1
		c5.3-0.1,9.6-4.5,9.6-9.7c0.1-13.3,0.1-26.5,0-39.8c0-3.8-1.9-6.6-5.3-8.5c-1.9-1.1-4.1-1.3-6.2-1.3c-19.2,0-38.4,0-57.6,0
		c-0.4,0-0.8,0-1.2,0c-5.9,0.3-10.3,4.4-10.3,9.9c-0.1,13.3-0.1,26.5,0,39.8c0,2.5,1,4.6,2.7,6.5c2.2,2.4,5,3.3,8.2,3.3
		C182.7,292.1,192.6,292.1,202.4,292.1z"/>
	<path class="st5" d="M488.7,903.1c-10.1,0.2-18-7.5-19.2-17.1c-0.5-4.5,0.7-8.5,2.9-12.3c4-6.8,8-13.7,11.9-20.5
		c1.4-2.3,2.5-4.8,3.6-7.3c0.2-0.6,0.5-1.2,0.8-1.7c0.5-0.8,1-0.7,1.5,0c0.1,0.2,0.2,0.4,0.3,0.7c2.5,7.2,6.4,13.8,9.8,20.5
		c1.7,3.3,3.4,6.7,4.8,10.2c0.7,1.8,1.4,3.6,1.8,5.5c1.6,7.7-1.4,13.6-7.2,18.3C496.7,901.7,492.8,903.3,488.7,903.1z M501.8,885.1
		c0-1.6-0.2-2.2-1-2.1c-1.1,0.1-1,1.1-1,1.8c-0.1,0.5-0.2,1.1-0.3,1.7c-1,4.8-4,7.7-8.8,8.8c-0.5,0.1-1,0.1-1.4,0.2
		c-0.7,0.2-1.3,0.4-1.2,1.2c0.1,1,0.9,0.9,1.7,0.9C496.3,897.2,501.7,891.6,501.8,885.1z"/>
	<path class="st5" d="M694.2,855.3c-0.2,7.1-3.3,12.5-9.4,16.2c-6.2,3.7-12.6,3.8-18.8,0.1c-5.2-3.1-8.1-7.8-9.2-13.7
		c-0.9-4.7,0.2-9,2.6-13c3.9-6.7,7.8-13.4,11.7-20.1c1.2-2.1,2.4-4.3,3-6.8c0.2-0.9,0.5-1.7,1.1-2.4c0.9-1.1,2-1,2.8,0.1
		c0.3,0.5,0.7,1.1,0.8,1.7c1,5.4,3.8,9.9,6.4,14.6c2.8,5.2,5.6,10.4,7.8,15.9C693.8,850.4,694.3,852.8,694.2,855.3z M689.6,854.1
		c0.1-0.8,0-1.7-1-1.8c-0.9,0-1,0.8-1,1.6c0,0.2,0,0.3,0,0.5c-0.6,5.7-3.8,9.1-9.3,10.3c-0.5,0.1-0.9,0.2-1.4,0.3
		c-0.7,0.2-0.9,0.6-0.8,1.2c0.1,0.7,0.7,0.8,1.3,0.8c0.2,0,0.3,0,0.5,0C684.6,865.8,689.1,861.5,689.6,854.1z"/>
	<path class="st5" d="M53,780c-0.3-4.1,1.7-7.7,3.7-11.2c2.9-5,5.9-10,8.9-15.1c2.2-3.7,4.1-7.6,5.8-11.6c0.3-0.8,0.5-2,1.6-1.9
		c0.9,0,1,1.1,1.3,1.8c3,8,7.2,15.5,11.1,23.1c1.6,3.1,3.2,6.3,4.4,9.5c3.9,10-3.2,22.4-14.1,24.7C61.8,802.2,52.5,789.9,53,780z
		 M83.7,781.3c0-0.3,0-0.6,0-1c-0.1-0.6-0.3-1.1-1-1.1c-0.7,0-1,0.4-1.1,1c0,0.2,0,0.5-0.1,0.7c-0.4,5.9-3.9,9.5-9.8,10.7
		c-0.5,0.1-1,0-1.4,0.3c-0.3,0.2-0.5,0.6-0.5,1c0.1,0.5,0.4,0.7,0.8,0.8c0.3,0,0.6,0,0.9,0C78.2,793.1,83.3,787.9,83.7,781.3z"/>
	<path class="st5" d="M327.9,812.9c0.8,2,1.4,3.6,2.1,5.2c2,4.9,4.6,9.5,7.1,14.1c2.6,4.7,5.1,9.4,7,14.4c4.1,10.7-2,22.9-13,25.4
		c-11.7,2.6-20.9-4.8-23.2-15c-1.1-5.1,0.4-9.6,2.8-14c4.2-7.9,9.2-15.3,13.5-23.2C325.4,817.6,326.5,815.4,327.9,812.9z
		 M338.6,854.2c0-0.1,0-0.3,0-0.6c0-0.7,0-1.3-0.9-1.4c-0.8-0.1-1,0.5-1.1,1.2c-0.1,0.7-0.2,1.4-0.3,2.1c-0.8,4.4-3.4,7.3-7.7,8.6
		c-0.8,0.3-1.7,0.4-2.6,0.6c-0.7,0.1-1.3,0.4-1.2,1.2c0.1,0.9,0.9,1,1.7,0.9C333.8,865.7,337.9,861.1,338.6,854.2z"/>
	<path class="st5" d="M184.5,892.3c0.2,7.4-4.8,14.4-12.6,17.4c-2.6,1-5.2,1.4-8,1.6c-4.7,0.3-8.2-1.8-11.2-5
		c-3.5-3.6-5.5-8.1-5.9-13.1c-0.4-4.2,0.9-8.1,3-11.6c2.3-3.8,4.7-7.7,7-11.5c3.2-5.3,6.1-10.7,8.5-16.4c0.3-0.8,0.4-1.9,1.6-1.9
		c1.1,0.1,1.2,1.2,1.4,2c2,6.1,5.1,11.7,8.1,17.4c2.5,4.7,5.1,9.4,6.9,14.5C184.1,887.9,184.7,890.1,184.5,892.3z M178.7,889.8
		c0-0.5,0.1-1.5-1-1.5c-1.1-0.1-1.1,0.9-1.2,1.7c0,0.1,0,0.2,0,0.2c-0.2,4.4-2.9,9-9.1,10.3c-0.4,0.1-0.8,0.1-1.2,0.2
		c-0.8,0.1-1.5,0.4-1.2,1.4c0.2,0.8,0.9,0.8,1.6,0.7C173.5,901.7,178,897.5,178.7,889.8z"/>
	<path class="st5" d="M516.3,187.2c-0.4-0.8,0.1-1.4,0.4-2c4-8.5,15.4-12.1,23.6-4.9c1.5,1.4,1.7,1.4,3-0.1
		c3.8-4.2,8.6-6.6,14.1-7.5c8.5-1.4,16,0.9,22.4,6.5c4.7,4.2,7.3,9.6,8.3,15.8c0.3,1.8,0.9,2.7,2.7,3.5c7.5,3.1,11.6,9.1,12,17
		c0.3,5.6-1.5,10.9-6.1,14.7c0-0.6,0.1-1.3,0.1-1.9c0.2-8.4-3.6-14.5-10.4-19c-1.3-0.8-3.2-0.8-3.9-2.1c-0.7-1.2-0.7-2.9-1-4.4
		c-3-12.2-14.2-20.9-26.8-21c-6,0-11.4,1.8-16.3,5.2c-0.6,0.4-1,1.3-2,0.9c-0.2-0.6,0.2-0.9,0.5-1.2c1-1.2,1.9-2.5,2.9-3.8
		c0.2-0.3,0.7-0.7-0.1-1.4c-1.7,1.8-3.2,3.8-4.6,5.9c-0.5,0.7,0.4,0.8,0.9,0.9c0,1.2-1,1.4-1.6,2.1c-0.3-0.2-0.5-0.3-0.7-0.4
		c-0.2-0.2-0.5-0.4-0.7-0.6c-3.5-2.6-7.5-4-11.9-3.4C519.4,186.3,517.8,186.8,516.3,187.2z M532.6,186.2c2-1,4.8-4.8,5-6.8
		C535.5,181.7,533.9,183.8,532.6,186.2z M584.4,205.7c1.7-1.8,3.2-3.7,3.9-6.1C586.4,201.3,585.2,203.4,584.4,205.7z M586.9,196.3
		c-1.6,1-3.9,4.5-3.9,6.1C584.6,201.1,586.6,198,586.9,196.3z"/>
	<path class="st5" d="M694.3,136.6c0.2-6.2-2.5-10.9-7.3-14.5c-1.2-0.9-3.1-1-3.8-2.3c-0.7-1.2-0.6-2.8-1-4.1
		c-4-13.4-20.1-19.7-32.4-12c-0.6,0.4-1.1,1.4-2.2,0.8c0.2-1.5,1.5-2.3,2.2-3.6c0.2-0.4,0.9-0.8,0.2-1.7c-1.4,1.3-2.5,2.8-3.3,4.5
		c-0.3,0.6,0.6,0.5,1,0.7c-0.6,2-1.6,2.6-3.1,1.6c-4-2.8-8.2-3.1-12.8-1.6c0.5-4,2.8-6.7,6.3-8.4c4.5-2.2,8.7-1.2,12.5,1.8
		c1.3,1,1.3,1.1,2.5-0.1c2.7-2.8,5.9-4.7,9.7-5.4c12-2.5,22.5,4.9,24.7,16c0.1,0.5,0.2,0.9,0.2,1.4c0.2,1.1,0.7,1.8,1.8,2.2
		c4.6,1.7,7.5,5.2,8.8,9.7C700,127.3,698.5,132.4,694.3,136.6z M648.1,98.5c-1.5,1.1-2.4,2.6-3.5,4c-0.2,0.2-0.2,0.4,0,0.6
		c0.2,0.2,0.4,0.3,0.6,0.1C646.4,101.8,647.7,100.4,648.1,98.5z M682.7,112.6c0.2,0.1,0.4,0.2,0.6,0.3c1-1.5,2-3,2.9-4.4
		c0.1-0.2,0.1-0.4-0.1-0.6c-0.2-0.1-0.5-0.2-0.6,0C684.5,109.4,683.2,110.7,682.7,112.6z M683.7,116.2c1.8-1.5,3.1-3.6,2.9-4.9
		C684.8,113.1,683.8,114.8,683.7,116.2z"/>
	<path class="st5" d="M756.5,595.5c-2.4-2.8-4.7-5.6-7.1-8.4c-3.4-3.8-6.9-7.5-10.7-10.9c-0.8-0.7-1.6-1.3-2.2-2.2
		c0.7-0.7,1.6-0.8,2.4-1.1c6.1-2.2,12-4.9,17.4-8.5c3.1-2.1,5.8-4.7,8.5-7.3c0,7.4,0.2,14.8,0,22.2
		C764.5,585.8,761.4,591.1,756.5,595.5z"/>
	<path class="st5" d="M723.6,302.9c0.4-5.7,0.8-11.1,1.2-16.5c0.3-4.1,0.5-8.1,0.7-12.2c0-1.1,0.2-2.2,0.5-3.3
		c0.3-0.9,0.9-1.5,2-1.5c1,0,1.6,0.5,1.9,1.5c0.2,0.6,0.3,1.2,0.3,1.9c-0.3,5-0.6,10-0.9,15c-0.3,4.9-0.6,9.9-0.9,14.8
		c0,0.5-0.1,1-0.3,1.4c-0.3,1-1.1,1.5-2.2,1.5c-1,0-1.6-0.6-1.8-1.5C723.8,303.5,723.7,303.1,723.6,302.9z"/>
	<path class="st5" d="M762.6,301.2c0,1-0.7,2-1.7,2.2c-1.1,0.2-1.9-0.3-2.3-1.3c-0.4-0.9-0.6-1.8-0.8-2.7c-1.5-8-3.5-15.9-5.2-23.8
		c-0.3-1.5-0.6-3.1-0.9-4.7c-0.2-1.5,0.3-2.5,1.6-2.7c1.1-0.3,2,0.3,2.5,1.7c0.7,1.9,1,3.8,1.5,5.8c1.7,7.9,3.5,15.9,5.2,23.8
		C762.4,300,762.5,300.6,762.6,301.2z"/>
	<path class="st5" d="M704.6,267.2c-0.2,0.5-0.3,0.9-0.5,1.4c-3.3,9.3-6.6,18.7-10,28c-0.2,0.5-0.4,1.1-0.7,1.5
		c-0.7,1.1-1.6,1.4-2.7,0.9c-1.1-0.5-1.5-1.3-1.1-2.5c1-3,2-6.1,3.1-9.1c2.2-6.2,4.4-12.5,6.7-18.7c0.3-1,0.6-2,1.3-2.8
		c0.6-0.7,1.4-1,2.3-0.6C704.1,265.5,704.6,266.2,704.6,267.2z"/>
	<path class="st5" d="M509.4,192.9c-1.5,2.6-2.9,5.3-2.9,8.5c0,0.6-0.3,0.9-0.9,0.9c-4.6-0.3-8.8,1.3-12.8,3.2
		c0.5-2.5,2.1-4.4,3.9-6.2C500.1,195.8,504.4,193.5,509.4,192.9z"/>
	<path class="st5" d="M627.1,107.9c-1.4,2.3-2.9,4.6-3,7.4c0,0.6-0.5,0.7-1,0.7c-3.3,0.1-6.4,1.2-9.3,2.5c0.3-2.5,1.8-4.4,3.6-6
		C620,109.9,623.1,107.9,627.1,107.9z"/>
	<path class="st5" d="M723,373.4c0.4-2.2,0.9-4.9,1.5-7.5c0.3-1.3,1.2-1.9,2.2-1.7c1,0.2,1.7,1.1,1.5,2.4c-0.4,2.6-0.9,5.2-1.4,7.8
		c-0.3,1.5-1,2.3-2.1,2.2C723.5,376.4,722.9,375.4,723,373.4z"/>
	<path class="st5" d="M732.8,382.8c-1,0-1.5-0.5-1.9-1.1c-0.4-0.7-0.2-1.4,0.3-2c0.3-0.3,0.7-0.6,1.1-0.9c1.8-1.3,3.7-2.6,5.5-3.9
		c0.5-0.4,1-0.7,1.7-0.8c0.9-0.1,1.5,0.3,1.9,1.1c0.4,0.8,0.2,1.6-0.5,2.2c-2.4,1.7-4.8,3.4-7.2,5.1
		C733.5,382.8,733,382.8,732.8,382.8z"/>
	<path class="st5" d="M743.6,393.4c-2.2-0.4-4.8-0.8-7.5-1.4c-1.5-0.3-1.9-1.1-1.7-2.4c0.2-1.1,1.1-1.6,2.6-1.4
		c2.5,0.4,5,0.9,7.5,1.4c1.5,0.3,2.1,1,2,2.2C746.4,393,745.8,393.4,743.6,393.4z"/>
	<path class="st5" d="M550.1,19.6c-1.4,0.1-2.1,1.3-3,2.1c-0.2,0.2-0.3,0.6-0.1,0.8c0.3,0.3,0.9,0.4,0.2,1c-0.5,0.4-0.9,0.9-1.6,0.3
		c-2.2-1.7-4.7-1.6-7.3-1.4c0.8-4.1,7.2-6.6,11.3-3.5C549.9,19.1,550.1,19.3,550.1,19.6z"/>
	<path class="st5" d="M532.9,26.3c-0.2,0.4-0.4,0.7-0.5,1.1c-0.4,3.2-2.8,3.6-5.3,3.6C528,28.2,530.4,27.1,532.9,26.3z"/>
	<path class="st5" d="M527.2,31c0,0.3-0.2,0.4-0.5,0.4C526.7,31.1,526.8,30.9,527.2,31z"/>
	<path class="st5" d="M516.3,187.2c0,0.3-0.2,0.4-0.4,0.3C515.9,187.2,516,187.1,516.3,187.2z"/>
	<path class="st5" d="M590.2,551c1.4-0.2,2.4-0.5,3.4-1c3.2-1.4,6.4-1.3,9.4,0.5c0.9,0.5,1.8,1,2.8,1.3c2,0.4,3,0,4-1.7
		c1.2-1.9,1.5-2,3.3-0.7c1.4,1,2.6,2.1,4.5,2.1c3.2,0,4.8-1.5,4.5-4.7c-0.2-1.4,0.3-2.2,1.4-3c1.8-1.3,2.2-2.7,1.6-4.8
		c-1.5-5-5.8-6-9.4-5.1c-1.3,0.3-2.6,0.9-3.8,1.4c-1.5,0.6-2.8,0.4-3.9-0.8c-0.3-0.3-0.7-0.7-1-1c-2.2-1.9-4.5-1.9-6.8-0.2
		c-0.5,0.3-0.9,0.7-1.3,1.1c-0.9,0.9-1.9,1.1-3.1,0.6c-1.5-0.6-3-0.5-4.3,0.6c-1.1,0.9-2.4,0.9-3.6,0.4c-1.5-0.5-3-1-4.6-1.2
		c-3.5-0.4-6.2,1.8-5.7,5.2c0.3,1.9,0.1,3.8,0.5,5.7c0.2,1,0.5,2,1.7,2.4c0.9,0.2,0.7,0.9,0.7,1.5c0,0.7-0.3,1.2-1.1,1.3
		c-2.5,0.4-3.3,2.2-3.7,4.4c-0.5,3.2-1.2,6.4-2.4,9.5c-0.6,1.7-1.7,2.8-3.5,3.3c-2.5,0.6-5,1.6-7.7,1.1c-1.9-0.3-6.4,2.4-7,4.2
		c-1.2,3.1-2.2,6.3-3.3,9.5c-0.4,1.2,0,2.2,1,2.9c0.7,0.4,0.9,0.9,0.6,1.6c-0.7,1.9-1.3,3.8-1.9,5.7c-0.3,0.8-0.8,1.1-1.6,0.9
		c-0.6-0.1-1.2-0.3-1.9-0.3c-0.9-0.1-1.8-0.2-1.7,1.2c0.1,1.1-0.8,1-1.5,1c-2.9,0.2-5.4,1.2-7.8,2.9c-8.5,6.1-9.5,18-2,25.3
		c0.6,0.6,1.3,1.2,2.2,2c-2.5,0.2-4.6,0.4-6.8,0.5c-11.7,0.5-23.5,1.4-35.1,2.4c-10,0.8-19.9,1.9-29.8,3.1
		c-8.8,1.1-17.6,2.3-26.4,3.6c-10.6,1.6-21.1,3.4-31.6,5.4c-22.7,4.3-45.2,9.5-67.4,15.7c-22.2,6.2-44,13.2-65.4,21.8
		c-2,0.8-4,1.6-6,2.5c-0.9,0.4-1.6,0.4-2.5-0.1c-12.6-6.6-24.4-14.3-34.7-24.2c-7.2-7-13.5-14.7-18.2-23.6
		c-2.7-5.1-4.8-10.4-6.2-16.1c-0.6-2.7-0.7-2.7-3.4-2.8c-20.5-1.1-40.7-4-60.2-10.5c-10.9-3.7-21.2-8.4-30.4-15.4
		c-5.7-4.3-10.7-9.4-14.2-15.7c-3.6-6.5-5.2-13.3-4.1-20.8c0.5-3.5,0.4-3.4-3.2-3.8c-15.2-1.6-30.2-4.2-44.5-10.1
		c-5.3-2.2-10.2-4.9-14.6-8.6c-2.9-2.4-5.2-5.2-6.8-8.6c-1.8-3.8-2-7.8-1-11.9c1-4.1,3.1-7.7,5.7-11c2.4-3,5-5.8,8-8.2
		c0.7,0.5,0.4,1.2,0.4,1.8c0,5.8,0,11.7,0,17.5c0,2,0,2,2,2c5,0,9.9,0,14.9,0c2.1,0,2.1,0,2.1-2.1c0-10.1,0-20.2,0-30.2
		c0-2.5,1.1-3.7,3.6-4c0.6-0.1,1.3,0,1.9,0c9.8,0,19.7,0,29.5,0c0.6,0,1.3,0.2,2.1-0.4c-2.8-3.5-5.6-6.9-8.7-10.6
		c11.9-4.5,23.9-7.8,36-10.7c0.6,1,0.4,1.9,0.4,2.8c0,6.1,0,12.2,0,18.2c0,2.3,0,2.3,2.4,2.3c5.3,0,10.6,0,15.8,0
		c2.6,0,2.4,0.1,2.4-2.5c0-7.6,0-15.2,0-22.8c0-2.3,0-2.3,2.2-2.7c9.8-1.7,19.7-2.9,29.7-3.9c13.6-1.2,27.1-1.6,40.7-1.2
		c1.3,0,2.6,0.2,3.8,0.2c0.8,0,1.1,0.4,1.1,1.2c0,0.6,0,1.3,0,1.9c0,18.7,0,37.4,0,56.1c0,1.8,0,3.7,0.1,5.5c0,1-0.4,1.6-1.2,2.1
		c-7.9,4.5-15.2,9.8-22.8,14.6c-1.1,0.7-2.2,1.3-3.6,1.3c-0.9,0-1.2,0.5-1.2,1.4c0,4.2,0,8.5,0,12.7c0,1.3,0.5,2.7,1,3.9
		c2.2,5.2,6.1,8.7,10.9,11.3c2.4,1.3,5.1,1.3,7.7,1.4c0.6,0,1.1,0,1.7,0c107.2,0,214.5,0,321.8,0c7.2,0,12.7-3.2,17-8.8
		c1.9-2.5,2.5-5.3,1.9-8.4c-0.6-3.2-0.5-6.4,0-9.5c0.4-2.9,0.1-3.8-2.5-5.3c-6.7-4-13.4-8-20.2-12.1c-0.8-0.5-1.5-1-2.2-1.4
		c-1.6-0.9-2.3-2.2-2.3-4.1c0.1-5.7,0-11.4,0-17c0-9.7,0-19.4,0-29c0-2.3,0-2.2,2.3-2.6c10-1.6,20.2-2.2,30.3-2.6
		c7-0.2,13.9,0,20.8,0.3c9.6,0.4,19.1,1.3,28.6,2.6c8.9,1.2,17.7,2.6,26.5,4.5c2.2,0.5,2.2,0.4,2.2,2.8c0,23.4,0,46.9,0,70.3
		c0,6,3.8,10.8,9.5,12.2c1.3,0.3,2.7,0.3,4,0.3c21.4,0,42.9,0,64.3,0c3.7,0,7-0.8,9.7-3.3c2.9-2.7,4.1-6,4.1-9.9
		c0-10.1,0-20.2,0-30.2c0-2.6,0-5.1,0-7.6c0.5-0.4,0.8-0.2,1.2,0c9.6,6,18.6,12.7,25.9,21.5c3.4,4.1,6.2,8.5,7.7,13.7
		c2.1,7.3,0.6,13.9-4.4,19.7c-4.4,5.1-10.1,8.6-16.2,11.4c-5.3,2.4-10.8,4.3-16.5,5.8c-1.1,0.3-2.3,0.5-3.6,1.2c1.2,1,2.3,2,3.5,3
		c10.1,8.6,19.5,18,27.1,29c6.3,9,11.3,18.8,13.8,29.6c0.9,3.9,1.3,7.9,1.6,11.9c0.1,1.6,0,1.7-1.6,1.4c-10.5-2.2-21.1-4.3-31.7-6.2
		c-9.5-1.7-19-3.2-28.6-4.6c-9.2-1.4-18.5-2.6-27.8-3.7c-8.8-1-17.6-1.9-26.5-2.6c-10.6-0.9-21.2-1.6-31.8-2.2
		c-2.6-0.2-5.3-0.2-7.9-0.5c0.1-0.8,0.8-1.2,1.3-1.7c2.5-2.5,4-5.5,4.6-9c0.2-0.9-0.1-1.9,1.1-2.4c0.5-0.2,0.3-1,0.3-1.6
		c-0.6-9.3-7.6-15.9-15.5-17c-4.7-0.7-9.1,0.3-13,2.9c-1.1,0.8-1.6,0.5-2.6-0.3c-2.4-1.8-1.5-3.8-0.7-5.9c0.6-1.4,1.7-2.1,3.2-1.7
		c1,0.2,2,0.6,3,0.9c1.5,0.4,3,0.4,4.5-0.3c1.5-0.7,2.8-1.9,2.5-3.7c-0.2-1.6,0.5-2.3,1.8-2.9c1.9-0.8,3.1-2.2,3.4-4.3
		c0.1-0.9-0.1-1.4-1.1-1.3c-0.7,0-1.4-0.1-2.1-0.2c-2.6-0.4-4.9-1.5-6.6-3.6c-3-3.7-5.6-7.6-6-12.5c-0.2-1.8-0.5-3.6-0.6-5.5
		C591.3,554.4,591.1,552.8,590.2,551z M109.9,531.8c0.1,2.1,0.8,4.1,1.3,6.1c0.3,1.4,1.1,1.9,2.4,1.7c1.3-0.2,1.9-0.9,1.8-2.3
		c0-0.5-0.1-1-0.2-1.4c-0.5-1.9,0.1-3.2,1.7-4.3c2.6-1.8,5.3-3.6,7.6-5.9c1.2-1.2,2.3-1.5,3.8-1.2c3.4,0.6,6.8,1.2,10.1,1.8
		c2.4,0.4,2.7,0.7,3.1,3.2c0.4,2.8,0.9,5.5,1.4,8.3c0.3,1.4,1.2,2,2.4,1.8c1.1-0.1,1.6-0.7,1.7-2.2c0.1-1.4,0-2.9,0-4.3
		c0.1-3.4,0.2-6.9,1.6-10.1c0.8-1.8,1.3-3.6,1.6-5.5c0.2-1.3,0.5-2.5,0.7-3.8c0.2-1.4,1.1-2.1,2.4-2.1c2.6,0,4.5-1.4,6.1-3.3
		c1.7-2,1.6-3.1-0.8-4.2c-3.4-1.6-6.1-3.8-7-7.6c-0.2-1-0.9-1.5-2-1c-0.7,0.3-1.1,0.3-1.6-0.4c-1.6-2.1-2.6-2-3.5,0.5
		c-0.1,0.3-0.2,0.6-0.3,0.9c-1.4,3.8-2.8,7.6-4.2,11.5c-0.5,1.3-1.1,2.3-2.6,2.4c-6.9,0.3-13.7,0.9-20.6,0.9c-3.4,0-6.1-1.5-8.2-4.2
		c-0.4-0.6-0.8-1.2-1.3-1.7c-0.5-0.6-1.1-0.6-1.7-0.3c-0.7,0.4-1,1-0.7,1.8c0.2,0.4,0.4,0.9,0.7,1.2c1.5,2.2,3.5,4,6,5
		c1.1,0.4,1.6,1,1,2.2c-1.3,2.8-1.2,5.8-0.2,8.6c0.5,1.5,0.4,2.6-0.8,3.7C110.3,528.5,109.8,530.1,109.9,531.8z"/>
	<path class="st5" d="M390.7,706.5c0.1-0.7,0.8-0.9,1.3-1.3c12.6-8.9,26.2-16.2,40.4-22.5c21.7-9.5,44.2-16.1,67.3-21.1
		c13.3-2.8,26.7-5.1,40.1-6.8c10.7-1.4,21.4-2.5,32.2-3.3c13.4-1.1,26.8-1.6,40.2-2c12.5-0.4,24.9-0.3,37.4-0.1c9,0.1,18,0.5,27.1,1
		c9.7,0.5,19.5,1.1,29.2,1.9c12.2,1,24.3,2.1,36.5,3.6c7.8,0.9,15.5,2,23.3,3.1c0.8,0.1,1.6,0.2,2.4,0.7c-1.2,4.6-3.1,8.8-5.5,12.8
		c-5.8,9.4-13.8,16.5-23.1,22.2c-11.3,6.9-23.5,11.4-36.3,14.6c-10.5,2.6-21.1,4.3-31.9,5.4c-14.4,1.5-28.9,1.7-43.3,1.2
		c-13.4-0.5-26.8-1.9-40-4c-26.5-4.2-52.2-11.3-77.2-21.3c-4.1-1.7-8.3-3.4-12.3-5.3c-1.6-0.7-2.9-0.7-4.5,0
		c-17.3,7.9-35.4,13.2-54.1,16.7c-10.9,2-21.9,3.3-33,4.1c-5,0.3-10.1,0.3-15.1,0.7C391.3,706.7,391,706.8,390.7,706.5z"/>
	<path class="st5" d="M374.2,533c57.2,0,114.4,0,171.5,0c3.9,0,3.8,0,3.6,3.9c-0.3,5.5-2.8,9.5-7.8,12c-1.3,0.7-2.7,1-4.2,1
		c-4.9,0.2-9.7,0.5-14.6,0.2c-4.1-0.3-8.1,0-12.2,0.1c-2.4,0.1-4.8,0-7.2-0.2c-2.1-0.2-4.3-0.2-6.5,0.1c-3.4,0.3-6.7,0.3-10.1,0
		c-2.5-0.3-5-0.3-7.4,0c-3.2,0.4-6.4,0.3-9.6,0c-2-0.2-4-0.3-6-0.1c-4.8,0.5-9.6,0.4-14.4,0c-2.4-0.2-4.8-0.1-7.2,0.2
		c-2.6,0.3-5.3,0.3-7.9,0c-3-0.3-6-0.3-9.1,0c-3,0.3-5.9,0.2-8.9-0.1c-2.5-0.3-5.1-0.3-7.7,0c-2.2,0.2-4.3,0.3-6.5,0.2
		c-3.7-0.3-7.3-0.4-11-0.1c-3.7,0.3-7.3-0.1-11-0.2c-4.6-0.2-9.3,0.7-13.9,0.2c-6.2-0.6-12.5,0.3-18.7,0c-9.3-0.4-18.7,0.1-28,0
		c-2.7,0-5.4,0-8.1-0.2c-2.3-0.2-4.6-0.1-7,0c-3.1,0.2-6.2,0.3-9.3,0c-3.1-0.3-6.2-0.2-9.3,0.1c-4.9,0.5-9.7-0.6-14.6-0.2
		c-4.5,0.4-8.9,0.4-13.4,0c-2.2-0.2-4.5,0-6.7,0.2c-2.9,0.3-5.9,0.2-8.9-0.1c-2.3-0.2-4.6-0.3-6.9,0c-3,0.4-6.1,0.3-9.1,0.1
		c-3.6-0.2-7.2-0.3-10.8,0c-2.2,0.2-4.3,0.1-6.4-0.3c-5.7-1-9.9-5.7-10.1-11.5c0-1.2-0.2-2.4-0.3-3.6c0-1.4,0.3-1.7,1.6-1.8
		c0.7,0,1.4,0,2.2,0C259.9,533,317.1,533,374.2,533z M546.8,536.9c0-0.5,0-0.8,0-1.2c0-0.6-0.3-1.1-1-1.2c-0.7-0.1-1,0.4-1.1,1
		c-0.1,0.4-0.1,0.8-0.1,1.2c-0.2,3.3-2,5.7-4.8,7.2c-0.3,0.2-0.7,0.3-1.1,0.5c-0.4,0.2-0.5,0.6-0.4,1c0.2,0.5,0.5,0.8,1.1,0.8
		c0.5-0.1,0.9-0.2,1.3-0.5C544.4,543.9,546.4,540.8,546.8,536.9z"/>
	<path class="st5" d="M641.9,462.9c0-24.2,0-48.5,0-72.7c0-3.6,1.7-5.6,5.3-6c0.8-0.1,1.6-0.1,2.4-0.1c22.8,0,45.6,0,68.3,0
		c2,0,4,0.2,5.7,1.4c1.3,0.9,2.1,2.1,2.1,3.8c0,0.6,0,1.1,0,1.7c0,47.7,0,95.5,0,143.2c0,1.2,0,2.4-0.3,3.6c-0.8,4-3.8,6.8-7.9,7.2
		c-1,0.1-1.9,0.1-2.9,0.1c-20.7,0-41.4,0-62.1,0c-0.8,0-1.6,0-2.4,0c-5-0.3-8.4-3.9-8.4-8.9C641.9,511.7,641.9,487.3,641.9,462.9z
		 M648.1,457.7c0,12.1,0,24.1,0,36.2c0,7,0.1,14.1,0,21.1c-0.1,3.4,2.9,6.9,6.7,6.6c2.5-0.2,5,0,7.4,0c17.1,0,34.2,0,51.3,0
		c4.1,0,6.5-2.5,6.6-6.5c0-0.4,0-0.8,0-1.2c0-37.5,0-75,0-112.5c0-0.6,0-1.1,0-1.7c0-1.7-0.7-3.1-1.9-4.2c-1.4-1.4-3.2-1.7-5.1-1.7
		c-19.3,0-38.7,0-58,0c-0.5,0-1,0-1.4,0c-2.5,0.2-4.1,1.6-5.1,3.8c-0.5,1.1-0.4,2.2-0.4,3.3C648.1,419.8,648.1,438.7,648.1,457.7z
		 M684.5,525.4c-3.8,0.1-7,3.3-6.9,7.1c0,3.8,3.3,7,7.1,7c3.9,0,7.2-3.4,7-7.3C691.6,528.5,688.3,525.3,684.5,525.4z"/>
	<path class="st5" d="M42.7,490.5c0-4.8,0-9.6,0-14.4c0-1.7,0-1.7,1.7-1.8c2.5,0,5,0,7.4,0c1.9,0,2,0,2,2c0,8,0,16,0,24
		c0,1.7,0,3.4,0,5c0,0.9-0.3,1.3-1.3,1.3c-2.9,0-5.8,0-8.6,0c-1.4,0-1.3-0.9-1.3-1.8C42.7,500.1,42.7,495.3,42.7,490.5z"/>
	<path class="st5" d="M561.8,600.7c0.9-0.1,1.5,0.5,2.1,1.1c1.7,1.7,4.4,2.4,5.3,5c0.1,0.3,0.5,0.4,0.8,0.4c1.8,0,2.7,1.5,4.1,2.3
		c0.4,0.2,0.7,0.6,0.5,1.2c-1.1,4.1,0.9,6.5,4.5,8.2c-0.5,1-1.1,1.8-1.8,2.5c-0.9,0.9-0.5,2.1,0.8,2.3c1.6,0.2,3.2,0.1,4.8,0
		c0.3,0,0.7-0.2,0.8-0.5c0.4-1.7,1.7-1.3,2.9-1.4c1.6-0.1,1.7-0.2,1.5-1.9c0-0.4-0.1-0.8,0-1.2c1.2,2.5,2.7,4.8,5.2,7
		c-12.4-0.2-24.3-0.2-36.7,0c4.2-3.7,6.6-7.9,6.6-13c0.7-0.6,1.3,0.2,2-0.3c0-3.4-0.8-6.7-2.5-9.7c-0.3-0.5-0.6-1.1-0.9-1.7
		C561.6,600.8,561.7,600.8,561.8,600.7z"/>
	<path class="st5" d="M576.6,574.1c-0.7,0-1.4,0-2.2,0c-0.5,0-1,0.2-1.1,0.7c-0.1,1.2-0.9,1.3-1.8,1.4c-2.1,0.3-4.2,0.7-6.3,1.2
		c-2.6,0.6-3.7,2.4-2.8,5c0.5,1.5,1.4,2.9,2.2,4.2c2.3,4,4.7,8,7.1,12c0.4,0.6,0.7,1.2,1.1,1.9c0.4,0.6,0.8,1.3,0.2,1.9
		c-0.8,0.8-1.5,0.4-2.3-0.2c-4.8-3.7-9.5-7.3-14.3-10.9c-0.9-0.7-1-1.3-0.6-2.2c0.2-0.6,0.5-1.2,0.6-1.8c0.2-0.8,0.7-1.7,0.6-2.5
		c-0.1-0.9-1.2-0.9-1.8-1.3c-0.5-0.3-0.6-0.7-0.4-1.2c0.9-2.5,1.7-5,2.8-7.4c0.7-1.5,1.5-1.7,2.8-0.9c1,0.6,1.8,0.7,2.9,0.3
		c1-0.4,2-0.3,3.1,0c1.5,0.4,2.9,0.1,4-1c0.7-0.7,1.4-0.9,2.3-1c2.9-0.2,5.9-0.2,8.8-0.7c0.7-0.1,1.1,0.1,1.3,0.8
		c0.2,0.6-0.2,0.8-0.7,1C580.3,574.2,578.5,574.2,576.6,574.1z"/>
	<path class="st5" d="M570.8,584c3.3,0,6,0,9,0c-1.3,2.5-1,5.2-2.1,7.7c-0.7,1.7-0.5,3.5,0.2,5.3c1.1,2.5,1.6,5.3,2.3,8
		c0.1,0.4,0.2,1-0.4,1.1c-0.6,0.1-0.8-0.4-0.9-0.8c-1.6-4.1-2.9-8.4-4.1-12.6C574.1,589.7,573.2,586.8,570.8,584z"/>
	<path class="st5" d="M586.6,603.9c-0.7-2.1-0.3-3.8,0.6-5.5c0.8,0.2,1.1,0.9,1.6,1.3c0.3,0.3,0.4,0.7,0.1,1
		C588.2,601.8,587.4,602.7,586.6,603.9z"/>
	<path class="st5" d="M578.3,564.1c0.4,0.1,0.5,0.3,0.7,0.6c1.5,2.7,1.2,3.1-2.2,3.1C577.3,566.6,577.8,565.3,578.3,564.1z"/>
	<path class="st5" d="M584.8,596.5c-1-2.1-1-2.1,1.2-4C585.6,593.7,585.3,594.8,584.8,596.5z"/>
	<path class="st5" d="M561.5,600.9c-0.9-0.8-1.8-1.7-2.7-2.6c1.1,0.7,2.5,0.9,2.9,2.3C561.7,600.8,561.6,600.8,561.5,600.9z"/>
	<path class="st5" d="M553.8,594.5c1.2,0.2,1.7,1,2.3,1.5C555.3,595.7,554.5,595.6,553.8,594.5z"/>
	<path class="st5" d="M539.9,245.1c-11.7,0-23.3,0-35,0c-10.7,0-16.8-6.5-19.4-14.6c-3.3-10.6,4-22.3,15-24.7
		c1.8-0.4,3.6-0.6,5.5-0.5c2.6,0.2,3.3-0.5,3.5-3.1c0.4-7.2,5.6-12.7,12.8-13.2c3.7-0.2,6.9,1.2,9.6,3.7c2,1.9,3.2,1.9,5-0.1
		c9.2-10.2,25.2-9.9,34.7-0.9c4.3,4.1,6.8,9.1,7.5,14.9c0.3,2.2,1.2,3.6,3.4,4.3c5.9,1.9,11.4,8.6,11.3,15.9
		c-0.1,11.8-8.8,18.3-17.8,18.4c-9.3,0.1-18.5,0-27.8,0C545.3,245.1,542.6,245.1,539.9,245.1z"/>
	<path class="st5" d="M535.8,188.5c0-0.4,0.1-0.6,0.5-0.5C536.5,188.5,536.3,188.6,535.8,188.5z"/>
	<path class="st5" d="M650.3,149.1c-9.1,0-18.2,0-27.3,0c-7.3,0-13.3-5-14.7-12c-1.3-6.1,1.9-14.4,10.2-17.2
		c1.7-0.6,3.5-0.9,5.4-0.8c2.3,0.2,3.2-0.5,3.2-2.8c0.1-4.2,3.2-8.8,8.7-9.7c3-0.5,5.5,0.5,7.7,2.4c2.3,1.9,2.9,1.9,4.9-0.3
		c6.4-6.9,18.3-7.2,25.6-0.6c3.2,2.9,5.2,6.4,5.9,10.7c0.1,0.5,0.3,0.9,0.3,1.4c0.1,1.7,1.1,2.5,2.6,3.1c4.1,1.5,6.8,4.6,8,8.6
		c2.5,7.8-3.3,17-12.5,17.1C669,149.2,659.6,149.1,650.3,149.1z"/>
	<path class="st5" d="M549.3,52.2c-6,0-12,0.1-18,0c-4.4-0.1-7.8-2.8-8.9-7c-1.5-5.6,2.8-11.3,8.8-11.7c0.4,0,0.8,0,1.2,0
		c1.2,0,2-0.5,2.1-1.8c0.1-0.7,0.2-1.4,0.4-2.1c0.9-3.2,5.4-6,9.3-3c2.2,1.7,2.6,1.7,4.6-0.2c6.1-5.8,16.5-3.1,19.1,5
		c0.1,0.2,0.1,0.5,0.2,0.7c0.2,2.4,1.3,3.9,3.7,5c3.3,1.5,4.7,5.5,3.8,9c-1,3.7-4,6.2-7.8,6.2C561.6,52.3,555.4,52.2,549.3,52.2
		L549.3,52.2z"/>
	<path class="st5" d="M716.4,212.4c-0.4-0.1-0.9-0.2-1.3-0.4c-1-0.5-1.1-1.1-0.3-1.8c1-0.9,2.2-1.5,3.5-2c1.1-0.4,2.2-0.9,3.3-1.3
		c0.5-0.2,0.9,0,1.2,0.4c0.2,0.3,0.2,0.6,0,0.9C721.2,210.3,719.2,211.8,716.4,212.4z"/>
	<path class="st5" d="M366.5,416.2c2.5-2.5,5-4.9,7.4-7.4c0.5-0.5,0.9-0.6,1.4,0c2.5,2.6,4.9,5.1,7.4,7.7c-0.2,0.4-0.7,0.2-1,0.2
		c-3.7,0-3.2-0.4-3.2,3.2c0,5-0.1,9.9,0,14.9c0,1.5-0.4,2.6-1.5,3.5c-1.3,1.1-2.4,2.3-3.7,3.4c0.1,0.2,0.1,0.4,0.2,0.6
		c1.2,0,2.4,0,3.7,0c0.9,0,1.3,0.4,1.3,1.3c0,0.5,0,1,0,1.4c0,14.8,0,29.6,0,44.3c0,0.4,0,0.8,0,1.2c0.1,1.1-0.3,1.6-1.5,1.6
		c-1.7-0.1-3.4,0-5,0c-0.8,0-1.2-0.3-1.2-1.1c0-0.5,0-1,0-1.4c0-10.1,0-20.1,0-30.2c0-0.4,0-0.8,0-1.2c-0.1-1,0.3-1.5,1.4-1.4
		c1.2,0,2.4,0,3.9,0c-0.8-1.7-2-2.7-3.2-3.6c-1.6-1.3-2.1-2.7-2.1-4.7c0.1-9.6,0-19.2,0-28.8c0-0.6,0-1.1,0-1.7
		c0-0.8-0.4-1.1-1.2-1.1c-0.9,0-1.9,0-2.8,0C366.6,416.5,366.5,416.4,366.5,416.2z"/>
	<path class="st5" d="M378.3,439.9c2.7-2.7,5.1-5.1,7.6-7.6c0.4-0.4,0.8-0.6,1.2-0.1c2.5,2.6,5,5.3,7.6,8c-0.5,0.3-1.3,0.1-1.9,0.1
		c-2.7,0-2.4,0-2.4,2.5c0,0.5,0,1,0,1.4c0,14.9,0,29.7,0,44.6c0,0.6,0,1.1,0,1.7c0.1,1.1-0.3,1.6-1.5,1.6c-1.4-0.1-2.9,0-4.3,0
		c-1.8,0-1.8,0-1.8-1.9c0-9.7,0-19.4,0-29c0-6.2,0-12.5,0-18.7c0-2.1,0-2.1-2.1-2.2C380.1,440.2,379.3,440.4,378.3,439.9z"/>
	<path class="st5" d="M342.3,447.4c1.1-1.6,2.3-2.5,3.4-3.6c1.4-1.4,2.8-2.8,4.2-4.2c0.4-0.4,0.8-0.9,1.4-0.3c2.5,2.5,5,4.9,7.4,7.4
		c-1,1-2,0.7-2.9,0.7c-1,0-1.5,0.5-1.4,1.4c0.4,1.9-0.7,3.1-2,4.3c-1,0.9-2,2-3.2,3.2c1.5,0.5,2.6,0.3,3.8,0.3
		c1.1,0,1.5,0.4,1.4,1.4c0,0.4,0,0.8,0,1.2c0,10.1,0,20.1,0,30.2c0,0.5,0,1,0,1.4c0,0.8-0.4,1.1-1.2,1.1c-1.7,0-3.4,0-5,0
		c-0.9,0-1.4-0.4-1.3-1.3c0-0.6,0-1.3,0-1.9c0-12.6,0-25.3,0-37.9c0-0.6,0-1.1,0-1.7c0-1.8-0.1-1.8-1.9-1.9
		C344.2,447.4,343.5,447.4,342.3,447.4z"/>
	<path class="st5" d="M354.7,454.5c2.7-2.8,5.2-5.5,8-8.4c2.8,2.8,5.7,5.3,8.7,8.6c-1.6,0-2.6,0-3.7,0c-0.8,0-1.2,0.4-1.2,1.1
		c0,0.6,0,1.1,0,1.7c0,10.5,0,20.9,0,31.4c0,0.6,0,1.1,0,1.7c0.1,1.1-0.3,1.6-1.5,1.6c-1.6-0.1-3.2,0-4.8,0c-0.9,0-1.3-0.4-1.3-1.3
		c0-0.6,0-1.1,0-1.7c0-10.4,0-20.8,0-31.1c0-0.5,0-1,0-1.4c0-1.8-0.1-1.8-1.9-1.9C356.3,454.6,355.5,454.8,354.7,454.5z"/>
	<path class="st5" d="M406.5,455.7c-0.7,0.2-1.6,0.1-2.4,0.1c-1.2,0-1.7,0.4-1.7,1.7c0.1,3.2,0,6.4,0,9.6c0,1.5-0.3,2.7-1.5,3.8
		c-1.3,1.1-2.5,2.4-4,3.9c1.6,0.4,3,0.2,4.2,0.2c0.9,0,1.3,0.3,1.3,1.3c0,4.9,0,9.7,0,14.6c0,1-0.5,1.2-1.3,1.2c-1.7,0-3.4,0-5,0
		c-0.9,0-1.3-0.4-1.3-1.3c0-0.6,0-1.1,0-1.7c0-10.4,0-20.8,0-31.1c0-1.2,0.1-2.2-1.6-2.2c-0.8,0-1.2-1.5-0.6-2.3
		c1.6-2,3.6-3.8,5.6-5.6c0.6-0.6,1,0.1,1.4,0.5C401.9,450.8,404.2,453.2,406.5,455.7z"/>
	<path class="st5" d="M330.6,470c0.9-0.9,1.7-1.8,2.6-2.6c1.5-1.5,3.1-3,4.6-4.5c0.9-1,1.5-0.8,2.3,0.1c1.2,1.4,2.5,2.6,3.9,3.9
		c0.7,0.7,0.9,1.4,0.9,2.4c0,1.2-0.8,1.2-1.5,1.3c-0.8,0.1-0.6,0.8-0.6,1.4c0,2.4,0,4.8,0,7.2c0,3.8,0,7.5,0,11.3
		c0,1.2-0.4,1.8-1.6,1.7c-1.4-0.1-2.9-0.1-4.3,0c-1.3,0.1-1.6-0.4-1.6-1.7c0-5.7,0-11.3,0-17c0-0.6,0-1.1,0-1.7
		c0-0.9-0.4-1.3-1.3-1.3c-1,0-2,0-3,0C330.8,470.3,330.7,470.2,330.6,470z"/>
	<path class="st5" d="M402.4,473c2.7-2.9,5.3-5.7,8-8.6c3,2.6,5.6,5.4,8.5,8.2c-1.1,0.6-2.1,0.4-3,0.4c-1.2,0-1.7,0.4-1.7,1.6
		c0.1,3,0,6.1,0,9.1c0,2.2,0,4.5,0,6.7c0,1.2-0.4,1.7-1.7,1.7c-1.4-0.1-2.9-0.1-4.3,0c-1.3,0.1-1.6-0.5-1.6-1.7c0-5.1,0-10.2,0-15.3
		c0-2,0-2-2.1-2.1C403.8,473,403,473,402.4,473z"/>
	<path class="st5" d="M208.1,262.5c0,3.4-2.4,5.6-5.8,5.6c-3.3,0-5.7-2.5-5.7-5.8c0-3.1,2.7-5.8,5.8-5.7
		C205.6,256.7,208.1,259.3,208.1,262.5z"/>
	<path class="st5" d="M183.2,268.1c-3.4,0-5.8-2.4-5.9-5.6c0-3.2,2.6-5.9,5.7-5.9c3.2,0,5.8,2.5,5.8,5.7
		C188.9,265.8,186.6,268.1,183.2,268.1z"/>
	<path class="st5" d="M227.2,262.5c0,3.3-2.4,5.7-5.8,5.7c-3.3,0-5.8-2.5-5.8-5.7c0.1-3.1,2.7-5.8,5.8-5.8
		C224.8,256.7,227.3,259.2,227.2,262.5z"/>
	<path class="st5" d="M146.3,520.4c-1.8-3.3-3.6-6.7-5.6-10.3c2,0.2,3.4,1,4.9,1.6c1.1,0.5,2.8,0.5,3.3,1.7c0.4,1-0.6,2.2-0.9,3.4
		c-0.3,1.2-0.8,2.4-1.2,3.6C146.6,520.4,146.5,520.4,146.3,520.4z"/>
	<path class="st5" d="M680.5,474.9c-11.3,0-20.4-9.2-20.3-20.5c0-12.7,11-20.5,20.7-20.4c8.6,0.1,20.1,6.8,20.2,20.4
		C701.2,467.4,690.4,475.1,680.5,474.9z M680.7,437.9c-9.2,0-16.7,7.5-16.7,16.5c0,9.1,7.5,16.6,16.6,16.6c9.1,0,16.6-7.4,16.7-16.6
		C697.3,445.4,689.8,437.9,680.7,437.9z"/>
	<path class="st5" d="M699.3,470.6c1,0.6,1.8,1.6,2.6,2.4c2.8,2.8,5.7,5.6,8.5,8.5c1.4,1.4,1.4,1.4,0.1,2.8c-1.3,1.4-1.3,1.4-2.8,0
		c-3.2-3.2-6.4-6.4-9.7-9.6c-1.6-1.6-1.7-1.3,0.1-3.1C698.4,471.1,698.7,470.7,699.3,470.6z"/>
</g>
</svg>
